<?xml version="1.0" encoding="UTF-8" standalone="no"?><!DOCTYPE svg PUBLIC "-//W3C//DTD SVG 1.1//EN" "http://www.w3.org/Graphics/SVG/1.1/DTD/svg11.dtd"><svg width="100%" height="100%" viewBox="0 0 192 192" version="1.1" xmlns="http://www.w3.org/2000/svg" xmlns:xlink="http://www.w3.org/1999/xlink" xml:space="preserve" xmlns:serif="http://www.serif.com/" style="fill-rule:evenodd;clip-rule:evenodd;stroke-linejoin:round;stroke-miterlimit:2;"><rect id="Favicon" x="0" y="0" width="192" height="192" style="fill:none;"/><clipPath id="_clip1"><rect id="Favicon1" serif:id="Favicon" x="0" y="0" width="192" height="192"/></clipPath><g clip-path="url(#_clip1)"><rect id="Black-out" x="-0" y="0" width="192" height="192" style="fill:#222;"/><path d="M98.405,32.823c-5.978,0 -9.934,2.427 -11.912,6.113c-0.764,0.449 -1.214,0.135 -1.214,-1.663c0,-3.956 5.214,-10.249 13.125,-10.249c6.877,0 13.125,6.113 16.047,12.226c1.978,3.686 3.057,8.406 3.057,12.091c0,12.99 -8.54,21.081 -18.789,27.509c-4.27,2.607 -6.248,6.113 -6.248,10.563c0,5.349 6.877,11.148 13.62,11.148c8.855,0 10.698,-8.271 11.013,-14.204c0.449,-6.113 1.663,-9.035 6.742,-13.305c5.484,-4.45 9.799,-4.72 14.519,-4.72c16.047,0 23.374,12.091 23.374,16.946c0,1.214 -0.315,2.427 -0.764,2.427c-0.449,0 -0.899,-0.764 -1.843,-2.607c-3.371,-6.563 -6.877,-8.54 -12.091,-8.54c-4.585,0 -9.17,3.956 -9.17,8.72c0,2.427 0.764,4.27 0.764,8.406c0,10.383 -12.676,19.238 -22.025,19.238c-10.698,0 -20.317,-9.17 -25.352,-18.205c-0.764,-1.214 -1.214,-0.449 -1.393,0.315c-0.449,2.607 -2.292,11.148 -2.292,17.575c0,4.27 0.135,8.271 0.449,11.597c0,0.315 0.899,0.899 1.079,0.899c14.654,2.742 24.453,11.327 27.509,14.654c3.686,4.135 6.428,9.484 7.327,14.384c0.629,2.922 1.393,3.191 2.742,3.371c5.214,0.315 11.013,-1.393 12.361,-2.158c2.158,-1.214 3.371,-3.191 3.956,-7.776c0.135,-2.292 -0.135,-3.686 1.079,-3.686c0.629,0 1.214,0 1.978,1.214c5.349,8.54 6.248,9.17 6.248,10.698c0,1.214 -0.629,3.191 -3.371,4.72c-5.484,3.371 -13.889,4.45 -20.632,4.45c-16.811,0 -31.195,-9.305 -38.072,-21.081c-2.158,-3.506 -4.45,-7.641 -5.664,-13.755c0,-0.135 -0.135,-0.449 -1.843,-0.629c-9.17,-0.764 -19.733,0.764 -27.509,5.978c-3.506,2.158 -5.214,6.563 -5.214,8.54c0,3.821 4.27,6.248 7.776,6.248c1.393,0 2.607,1.528 2.607,4.585c0,2.742 -1.978,6.563 -6.113,6.563c-6.113,0 -10.383,-6.428 -10.383,-12.226c0,-15.598 23.239,-24.587 38.657,-24.587c0.449,0 1.393,-0.449 1.393,-0.899c-0.315,-2.742 -0.315,-3.821 -0.315,-7.192c0,-6.877 1.978,-17.575 2.922,-20.767c0.449,-1.393 0.315,-2.158 -0.629,-1.843c-0.899,0.135 -2.427,1.843 -3.686,3.191c-5.214,5.978 -14.204,17.89 -23.059,17.89c-2.742,0 -6.113,-1.079 -9.934,-3.821c-5.978,-4.27 -7.507,-9.305 -7.507,-12.091c0,-5.799 4.27,-12.091 7.012,-16.811c1.528,-2.742 2.158,-5.484 2.158,-6.563c0,-4.27 -4.135,-5.978 -6.742,-5.978c-5.978,0 -9.799,2.922 -11.912,6.248c-0.449,0.764 -0.629,1.393 -1.214,1.393c-0.584,0 -0.764,-0.629 -0.764,-2.158c0,-6.563 10.383,-13.62 18.789,-13.62c7.507,0 14.204,6.742 14.384,14.069c0.135,4.72 -2.158,8.72 -2.158,13.305c0,5.214 4.135,8.855 8.54,8.855c6.248,0 11.777,-4.135 11.777,-10.698c0,-1.528 -1.528,-3.506 -3.686,-6.113c-2.292,-2.607 -2.742,-4.9 -2.742,-6.428c0,-10.563 12.541,-16.811 20.767,-20.497c7.192,-3.057 11.912,-7.641 11.912,-12.676c0,-4.585 -4.135,-8.72 -9.619,-8.72l0.18,0.135Zm16.047,109.587c-5.484,-5.664 -17.126,-10.383 -24.587,-11.912c-0.315,0 -0.764,0.449 -0.764,0.764c1.663,6.877 6.742,12.676 11.462,17.261c2.922,2.922 9.799,6.563 14.654,7.507c0.899,0.449 1.843,0.315 2.742,-0.315c1.214,-1.079 1.528,-2.922 1.528,-4.27c0,-1.528 -1.393,-5.214 -5.034,-9.035" style="fill:#f8f4eb;fill-rule:nonzero;"/></g></svg>