<svg xmlns="http://www.w3.org/2000/svg" viewBox="0 0 224.65 40">
  <defs>
    <path id="i" d="M31.77,14.78c.03.27-.2,1.19-.44,1.77-.75,1.9-2.75,6.77-3.5,8.47-.24.54-.1.65.07.65.48,0,1.94-1.33,2.48-1.9.54-.58.41,0,.17.37-1.46,2.01-3.16,2.99-4.22,2.99-.27,0-.65-.48-.65-.95-.03-.37.24-1.22.82-2.62.61-1.36,1.94-4.83,3.06-7.28.17-.37.1-.61-.07-.61-.51,0-1.29.51-2.24,1.5-.54.54-.54.07-.27-.31,1.5-1.87,3.26-2.86,4.22-2.86.41,0,.54.48.58.78ZM32.93,9.62c0,.82-.78,1.22-1.19,1.22-.58,0-.95-.48-.95-1.05,0-.65.58-1.29,1.19-1.29.78,0,.95.78.95,1.12Z" />
    <path id="l" d="M53.73,4.38c-.92,2.55-5.54,17.54-6.32,20.13-.1.48.03.75.24.75.58.03,1.7-.92,2.65-2.11.31-.34.41-.03.07.48-.85,1.53-2.75,3.54-4.28,3.54-.51,0-.75-.54-.75-.82,0-.54.2-1.43.31-1.87.75-3.26,4.83-15.81,5.68-18.94.24-.85.2-1.19-.95-1.53-.31-.1-.31-.27.2-.34.78-.1,2.04-.24,2.75-.37.2-.07.41-.1.51-.1.17,0,.14.48-.1,1.19Z" />
    <path id="o" d="M69.2,17.94c0,3.5-2.41,6.87-3.91,7.96-1.29.99-2.31,1.22-3.26,1.22-1.16,0-2.52-1.09-2.52-3.74,0-1.8.85-4.69,2.41-6.6,1.56-1.97,3.26-2.79,4.66-2.79,2.07,0,2.62,2.38,2.62,3.94ZM63.52,17.4c-1.33,2.11-2.35,5-2.35,7.31,0,1.26.37,1.94,1.05,1.94.54,0,1.29-.48,2.14-1.56,1.56-2.04,3.16-6.12,3.16-8.43,0-.82-.03-2.18-.88-2.18s-1.84.92-3.13,2.92Z" />
    <path id="e" d="M87.89,15.67c0,.71-.54,1.73-1.7,2.62-1.29,1.02-3.23,1.67-4.73,1.77-.14,0-.27.2-.31.31-.34.85-.68,2.48-.68,3.5,0,.61.1,1.67,1.43,1.67.95,0,2.04-.75,2.92-1.84.14-.17.24-.24.27-.07.03.07-.03.41-.27.92-.82,1.39-2.24,2.58-4.01,2.58-1.12,0-2.24-1.29-2.24-3.26,0-2.35,1.26-5.07,2.24-6.49,1.43-1.94,3.5-3.37,5.13-3.37,1.43,0,1.94.85,1.94,1.67ZM81.5,19.47c-.03.1.03.14.17.1,2.01-.31,4.79-2.75,4.79-4.15,0-.58-.24-.95-.68-.95-1.46,0-3.23,2.07-4.28,5Z" />
    <path id="a" d="M107.44,15.05s.14,0,.17-.07c.44-.78.68-1.02.82-1.02.24,0,.58.17.85.37.1.07.14.31.07.54-.27.88-2.35,6.29-3.57,9.89-.07.17.03.31.2.31.85,0,2.01-1.02,2.86-2.18.2-.2.34-.17.27.1,0,.14-.1.34-.2.54-.88,1.56-2.99,3.6-4.73,3.6-.44,0-.75-.2-.75-.51,0-.44.99-2.75,1.9-5.24.07-.17-.03-.24-.1-.14-3.67,4.18-6.08,5.88-7.21,5.88-.54,0-1.05-.54-1.05-1.43s.65-2.45,1.67-3.98c1.12-1.73,2.86-3.6,4.69-5.03,1.33-1.05,2.96-2.01,3.4-2.01.24,0,.51.17.71.34ZM101.93,18.69c-1.33,1.46-2.79,4.42-2.79,5.92,0,.27.1.71.51.71.61,0,1.5-.65,2.48-1.53,2.14-2.01,3.81-4.59,4.69-7.1.03-.07,0-.17,0-.24-.14-.07-.54-.27-.95-.27-1.33,0-2.89,1.33-3.94,2.52Z" />
    <path id="p" d="M133.5,14.85c.71.54.99,1.77.99,2.41,0,3.5-2.96,7.72-6.26,9.35-.48.27-1.22.51-1.56.51-.17,0-.44-.07-.82-.31-.14-.03-.17-.03-.2.07-.31.65-1.46,5.41-1.84,7.14-.31,1.36.03,1.46,1.16,1.73.75.17.48.44-.03.44-.71,0-1.6-.07-2.55-.07s-1.8.14-2.52.14c-.65,0-.88-.31,0-.44,1.19-.24,1.46-.54,1.94-1.7.82-2.41,3.77-13.7,5.1-18.73.03-.1,0-.24-.07-.2-.78.1-1.8.37-2.14.51-.37.17-.14-.24.07-.41.41-.27,1.29-.51,2.28-.78.03-.03.14-.17.17-.24.14-.44.54-1.9.71-2.48.1-.24.44-.37.51-.37.58,0,1.12.48,1.09.78-.03.27-.31,1.33-.41,1.8,0,.1,0,.24.1.2.37-.03,1.26-.1,1.7-.1,1.19,0,2.07.34,2.58.75ZM129.09,14.92c-.17.03-.2.1-.27.24-.37,1.22-2.18,7.79-2.79,10.27-.14.58.2,1.22.54,1.22.2,0,.68-.17,1.46-.75,1.39-1.12,4.45-5.47,4.45-8.77,0-.88-.37-2.31-2.31-2.31-.37,0-.82.03-1.09.1Z" />
    <path id="s" d="M118.01,14.65c.17.17.24.37.24.58,0,.44-.65.99-.92.99-.1,0-.24-.03-.48-.27-.37-.34-.95-.85-1.5-.85-.75,0-1.43.58-1.39,1.6,0,.78.34,1.73,1.29,3.3.65,1.19,1.02,2.24.99,3.06,0,1.02-.71,2.04-1.97,2.99-1.09.82-2.21,1.09-2.96,1.09-1.09,0-1.8-.85-1.84-1.7-.03-.34.14-1.02.41-1.26.14-.1.27-.14.37.03.54.99,1.43,1.87,2.55,1.87,1.02,0,1.87-.68,1.84-1.9,0-.65-.27-1.53-1.02-2.89-.88-1.56-1.16-2.41-1.16-2.99,0-.85.48-2.07,1.63-3.06.88-.78,1.84-1.22,2.58-1.22.51,0,1.05.27,1.33.65Z" />
  </defs>
  <g id="bibliotecas" fill="#f7f3ea">
    <path d="M22.87,6.69c1.29.92,1.84,2.01,1.84,3.37,0,3.09-2.38,4.49-4.73,5.1-.17.07-.34.17-.1.27,1.12.44,2.18,1.16,2.86,2.04.54.71,1.02,1.73,1.02,2.96,0,3.47-2.65,5.17-4.62,5.78-1.22.37-2.72.54-3.94.54s-2.92-.1-3.77-.1c-1.02,0-2.75.1-3.77.14-.85.03-.85-.41-.07-.51,2.48-.24,2.52-.51,3.37-2.89.58-1.5,4.69-14.89,5.2-16.56.1-.27.03-.44-.07-.48-.41-.03-.99-.03-1.39-.03-5.41,0-8.64,1.9-8.64,4.22,0,1.05.92,1.36,1.8,1.5.34.07.61.51.61.82,0,.82-.82,1.16-1.36,1.16-.75,0-1.94-.78-1.94-2.65,0-3.13,3.03-5.75,11.05-5.75,3.3,0,5.3.2,6.66,1.09ZM15.46,16.24c-.1.24-1.7,5.47-2.31,8.06-.1.37-.1,1.05.1,1.22.48.34,1.19.68,2.14.68,3.2,0,5.78-2.18,5.78-5.78,0-2.58-1.6-4.79-4.69-4.79-.51,0-.82.17-1.02.61ZM18.59,6.56c-.1,0-.24.1-.31.27-.54,1.56-2.24,7.04-2.41,8.02-.03.2.03.34.24.34,4.32,0,6.32-2.14,6.32-4.93,0-2.55-1.8-3.54-3.84-3.71Z"/>
    <use href="#i" />
    <path d="M44.32,16.31c-.03,3.13-2.82,7.21-5.17,9.01-1.43,1.09-2.99,1.8-3.98,1.8-1.39,0-2.04-1.05-2.04-2.35,0-.51.24-1.84.54-2.99.92-3.26,3.98-13.53,4.73-16.35.2-.82,0-1.05-.82-1.19-.24-.03-.37-.1-.37-.24,0-.1.24-.2.48-.2,1.39-.1,2.75-.48,3.26-.61.17-.03.14.31.07.48-.41,1.19-3.47,11.39-4.66,15.06-.07.1.03.34.17.17,2.04-2.52,4.45-4.9,6.22-4.9,1.19,0,1.6,1.16,1.56,2.31ZM37.25,18.96c-1.22,1.73-2.24,4.39-2.24,5.68,0,1.19.41,1.77.95,1.77.61,0,1.09-.17,2.01-1.09,1.8-1.77,4.25-6.32,4.25-8.77,0-.51-.2-1.29-.85-1.29-1.05,0-2.79,1.77-4.11,3.71Z"/>
    <use href="#l" />
    <use href="#i" x="26.31" />
    <use href="#o" />
    <path d="M76.4,15.22c-.14,0-.27.27-.34.48-.41,1.09-1.97,5.61-2.92,8.63-.07.24-.03.54.17.54.37,0,1.43-.58,2.65-1.94.58-.61.41.03.17.41-1.29,1.94-3.64,3.77-4.69,3.77-.27,0-.68-.34-.68-.82,0-.44.2-1.09.37-1.6.41-1.16,2.01-6.05,3.06-9.04.03-.14.07-.37-.1-.37-.51-.03-.99,0-1.36-.03-.24-.03-.27-.14-.27-.17,0-.14.31-.37.44-.37.17-.03.65-.1,1.5-.14.07,0,.2-.17.24-.24.31-.68.85-1.9,1.22-2.45.2-.31.88-.71,1.39-.71.17,0,.2.31.1.58-.27.92-.54,1.9-.75,2.52-.03.07,0,.2.03.2.61,0,1.6-.07,2.55-.07.07,0,.24.1.24.17s-.17.41-.75.48c-.71.07-2.01.17-2.28.17Z" />
    <use href="#e" />
    <path d="M97.34,14.68c.2.2.34.44.34.82,0,.51-.68.92-.92.92s-.51-.2-.85-.65c-.48-.71-.75-1.02-1.22-1.02-.78,0-1.6,1.02-2.41,2.55-.95,1.67-1.84,4.56-1.84,6.77,0,1.09.51,1.73,1.12,1.73.92,0,2.11-.78,3.23-2.11.27-.31.34-.37.44-.37.17,0-.07.61-.27.92-.75,1.46-2.52,2.89-4.18,2.89-1.02,0-2.38-.95-2.38-3.5,0-.61.17-2.31,1.02-4.28.78-1.77,2.11-3.67,4.22-4.69.82-.44,1.5-.61,2.14-.61.54,0,1.19.24,1.56.65Z" />
    <use href="#a" />
    <use href="#s" />
  </g>
  <g id="populares" fill="#f7f3ea">
    <use href="#p"/>
    <use href="#o" x="76.98" />
    <use href="#p" x="24" />
    <path d="M172.25,16.14c-.88,2.24-1.9,5.07-3.13,7.99-.17.48-.17.75.17.75.85,0,2.35-1.63,2.58-1.9.44-.54.48-.1.2.37-1.09,1.94-3.54,3.77-4.73,3.77-.27,0-.54-.27-.54-.68,0-.34.07-.82.27-1.36.27-.71,1.05-2.52,1.77-4.42.14-.37.07-.41-.24-.14-1.36,1.7-3.81,4.28-5.78,5.71-1.02.75-1.56.88-1.97.88-.24,0-.48-.1-.61-.44-.24-.48-.14-1.26.2-2.35.78-2.28,2.31-5.68,3.16-7.82.1-.27.1-.48-.07-.48-.48,0-1.43.78-2.24,1.56-.65.58-.51-.03-.24-.34.78-1.26,3.09-3.26,4.35-3.26.48,0,.82.54.41,1.77-.37,1.05-2.89,6.94-3.71,9.08-.14.41-.07.78.24.78.54,0,1.8-.88,3.77-3.09,2.07-2.38,4.08-5.98,5.13-7.79.24-.34.71-.71,1.12-.71.44,0,.48.51-.14,2.11Z" />
    <use href="#l" x="128.65" />
    <use href="#a" x="83.4" />
    <path d="M199.24,15.5c-.03.78-1.05,3.33-1.26,4.05-.1.37.07.48.24.17.78-1.26,1.56-2.58,2.48-3.67.95-1.22,2.07-2.04,2.96-2.04.75,0,1.09.68,1.09,1.22,0,1.26-1.09,1.97-1.46,1.97-.24,0-.41-.1-.37-.44,0-.95-.07-1.5-.54-1.5-.58,0-1.56,1.16-3.26,4.45-1.02,1.97-2.28,4.56-3.3,6.77-.2.48-.48.65-.61.65-.24,0-.65-.07-.85-.37-.07-.1-.1-.27-.03-.54.1-.44,1.73-5.17,3.23-9.59.2-.61.1-.85-.14-.85-.71,0-1.7,1.16-2.28,1.7-.2.17-.34.03-.34-.1.03-.75,1.43-3.16,3.4-3.16.71,0,1.09.54,1.05,1.29Z" />
    <use href="#e" x="125.86" />
    <use href="#s" x="103.45" />
  </g>
</svg>
