<svg xmlns="http://www.w3.org/2000/svg" width="175" height="52" viewBox="0 0 175 52"><g fill="#5f5f5f"><path d="M36.5 7.7H36c-.1 0-.2 0-.3-.1-.3-.2-.1.5-.5.4l-.5-.5s-.3.1-.3.2l-.3-.2c-.4.5-.9.1-1.4 0-.8-.2.1 1.2-2.7-.1-.3-.1-.7-.1-.8 0-.2.3-.3.2-.5.2l-1.8.7c-.2 0-.4.2-.6.3.3.3.6.7 1.1.6 2.9-.8 2.4.5 2.9.5s.7-1.3 1.9-1c.3 0 .7.9 1 1 1.4.4 2.6-1 2.9-1 .2 0 .7.9 1 1 1.9.5 2.7-1 2.9-1s.7 1.2 1.4 1c.4-.1.7-1.3 1.9-1 .4.1.7 1.3 1.9 1 .2 0 .3-.6 1-.5 3.2.9 7.3.5 10.5 0 1.5-.2.6.2 1.4.5 1 .3 1.4-.6 1.9-.5 2.7.7 5.1.1 7.2.5.9.1 2 0 2.9 0l1.2-1.4c-1.2.5-1.8-.8-2.2-1-1.6-.4-2.3 1-2.4 1s-.7-.9-1-1c-.4-.1-2.3 1-2.4 1s-.8-1.3-1.9-1c-1.5.5-2.1-.3-3.8 0-.3 0-2.7 1-2.9 1s-.7-.9-1-1h-2.9c-.3 0-1 1.2-1.4 1.4-.6 0 0-1.3-.2-1.4-.5-.5-1.5.9-1.7 1-.7.2-1.1-.9-1.4-1-.3 0-3-.1-3.1 0 0 0 .3 1.4-.7 1-.3-.1-.7-.9-1-1-.4-.1-2 .8-2.5.7-.9-.1-1.2-.7-2.1-.4ZM129.6 26.5c1-.1 4.2.5 4.5-.7.4-1.2-1.8-1.4-2.6-1.2-1.3.3-3.5.3-4.8 0-2.4-.5-5.4.9-7.2.5-2.6-.6-6.8.1-9.6-.5-3-.7-8.8.7-12 0-2-.4-5.4.3-7.7 0-.4 0-.2-.6-.2-1-.9-.2-.3.8-.5 1s-3.3-.2-4.1 0c-.2 0-.3.6-1 .5-.2 0-.3-.4-.5-.5-.8-.2-3.9.2-4.1 0v-1h-1.4c-.1.1.1 1.3 0 1.4-.2.2-.5-.4-.7-.5-.8-.2-3.9.2-4.1 0v-1h-1.9v1.2c0 .2-1.1 1.3.2 1.7.6.2 1.8-1.3 2.9-1 2 .6 2.7.2 4.3.5 4.3.9 9.2-.3 13.4.5 1.1.2 7.4-.3 8.1-.5 2.9-.6 6.2.9 9.1 0 .9-.3 1.3.5 1.4.5.6.1 2.5-.1 2.6 0 0 0 0 1.5.5 1v-1h1.2c.2 0 .5-.8 1.4-.5 2.6.8 3.1-.4 5.3 0 1.1.2 2.8.2 3.8.5.6.2 1-.7 1.9-.5.8.2.4 1.6 1.2 1.4 0-.4-.2-.9.2-1ZM73.2 30.3c.3 0 .8 1 1 1s.7-.9 1-1c1.7-.5 5.1.3 6.7 0 2.9-.5 7.9.2 10.5.5 4.1.4 9-.8 12.4 0 .5.1 3.9.1 4.3 0 .3 0 .8-1 1-1s1 1.5 2.9 1c.4 0 .7-1.2 1.4-1 .5.1.7 1.4 2.4 1 .7-.2.7-.6.2-1.2-.2-.2-1.1-1.2-1.2-1.2-.6-.2-.7.4-1 .5-1.2.4-2.2 0-2.4 0s-.3.4-.5.5h-2.2v-1c-.5-.5-1.5 1.1-2.2 1-2.1-.6-3.5-.2-5.7-.5-4.1-.5-9.2.7-12.9 0-3.2-.6-8.4.5-11.5 0-5.8-1-14.2.9-20.1 0-.2 0-.7-.7-1.9-.5-.3.6-1.6.2-1.2 1.2.5 1.1 2.2.6 3.1.7.9.2 1.4-.1 1.9 0 1.2.3 2.7-.3 4.3 0 1.7.3 3.5-.4 5.3 0 1.2.3 3.2-.3 4.3 0ZM121 34.1c1.6-.3 3.7.3 5.3 0 2.2-.4 4.6.9 6.2 0l2.6-.2c.3-1.9-.7-.9-1.7-1.2s-2.7-.2-3.8 0c-1.6.4-5-.5-5.3-.5-2.9.8-5.8.7-8.6 0-1.2-.3-2 .6-2.4.5-1.4-.4-1.7.5-1.9.5s-.8-1.3-1.9-1c-3 .9-11.9.7-14.4 0-.4-.1-3 .5-3.4.5s-.8-1-1-1-.7 1.2-1.4 1c-2-.5-4.5.1-6.7-.5-.6-.2-.7.4-1 .5-.7.2-1-.8-1.4-1-1.1-.4-.6.9-.7 1-.5.5-2.4-.7-3.1-.5-.4.1-.3.9-1 0-.9.2-1.5-.7-2.4-.5-.8.2-.9 2.2-.7 2.4H74c.4-.1.7-1.3 1.9-1 .3 0 .7.9 1 1 1 .3 2.2-1 2.4-1s.7 1.2 1.4 1c1.2-.3 2.4.3 3.8 0s7.3-.3 8.6 0c1.6.4 3.9-.2 5.3 0 2.3.4 4.2-.8 6.2-.5 1.8.3 3.6.3 4.8.5 1.4.2 3.6-.3 4.8 0 .3 0 .9 1.2 1.2 1v-1c.2-.2 4.5.2 5.5 0ZM57.8 19.8c-2.5-.6-3.9 1.7-1 1.9 1 0 3.5.2 4.3 0 1.5-.3 10.9-.4 12.9 0 3.8.7 10.2-.8 13.9 0 4.2.9 10.9-.7 14.8.5.7.2 1.9-.7 3.4-.5 1.3.2 2.5.3 3.4.5.7.2 1.2-.9 1.4-1 .2 0 1.4 1.2 2.4 1 .4-.1.7-1.3 1.9-1 .2 0 .4.5.7.7 1.4.9 2.7.2 1.4-1.4-1.1-1.4-1.2-.3-1.7-.2-.8.2-2-.1-2.9 0-.2 0-.3.4-.5.5-2.4.5-1.5-.8-1.7-1-.5-.5-1.6 1-1.7 1s-.3-.4-.5-.5c-1.5-.3-3.8.6-4.3.5-5.7-1.7-14.3.5-20.1-.5-1-.2-2.3.2-3.4 0-1.2-.2-1.2.2-2.4 0-6.6-1.1-15.2.8-20.6-.5ZM77.5 8.4c-.9-.2-1.5.1-1.9 0-.6-.2-1.4-1.2-2.4-1-.8.2-.9 2.2-.7 2.4.7.7 2.9-1 3.1-1s1.5 1.3 2.9 1c.3 0 .8-1 1-1s.7.9 1 1c.6.2 4.1.1 4.8 0 2.2-.4 11.3-.4 13.4 0s3.7-.4 5.7 0c2.7.5 7.7-.6 10.1 0 .3 0 .8 1 1 1s.7-.9 1-1c.9-.2 7.7-.2 8.6 0 1.6.4 6.3.3 7.7 0l2.6-.2c0-1 .4-1.1-.7-1.2-7.4-.4-15.1.3-22.5 0-.8.6-1-.2-2.4 0-4.9.8-13.3-1.1-16.8 0-1.2.4-1.7-1-1.9-1s-.7.9-1 1c-.5.1-1-.2-1.9 0-1.5.2-2.7-.2-3.8 0-.5 0-2.4.1-2.9 0-.3 0-.7-.8-1-1-1.1-.4-.6.9-.7 1h-2.2ZM72.4 14.1c.7.7 2.9-1 3.1-1s1.5 1.3 2.9 1c.3 0 .8-1 1-1s.7.9 1 1c.6.2 4.1.1 4.8 0 1.3-.2 6.8-.2 8.1 0 3.2.5 8-.6 10.5 0 2.7.6 8.1-.7 10.5 0 .3 0 .8 1 1 1s.7-.9 1-1c.9-.2 7.7-.2 8.6 0 1.4.3 6.5.4 7.7 0 .7-.2 2.2 1.1 2.6-.2.3-.9.3-1.1-.7-1.2-4-.2-8 .2-12 0-3.1.3-7-.5-10.5.5-.5.1-.9-.7-2.4-.5-4 .7-9.5-.6-12.9 0-1.5.3-2.7-.3-3.8 0-1.2.3-1.7-1-1.9-1s-.7.9-1 1c-.6.2-4.1.1-4.8 0-.2 0-.3-.5-.5-.5s-.3.4-.5.5c-.5 0-2.4.1-2.9 0-.3 0-.7-.8-1-1-1.1-.4-.6.9-.7 1h-2.2c-.9-.2-1.5.1-1.9 0-.6-.2-1.4-1.2-2.4-1-.8.2-.9 2.2-.7 2.4M74.1 38.4c.4-.1.7-1.3 1.9-1 .3 0 .7.9 1 1 1.6.4 2.3-1 2.4-1s.7.9 1 1c.6.2 4.1.1 4.8 0 2.2-.4 11.3-.4 13.4 0 2.2.4 3.9-.3 6.2 0 2.6.4 7.4-.6 9.6 0 .3 0 .9 1.2 1.2 1v-1c.2-.2 4.5.2 5.5 0 1.6-.3 3.7.3 5.3 0 2.2-.4 4.6.9 6.2 0l2.6-.2c0-1 .4-1.1-.7-1.2-7.4-.4-15.1.3-22.5 0-.8.6-1-.2-2.4 0-5.2.9-13.3-1.1-17.2 0-.7.2-1.2-1-1.4-1s-.7.9-1 1c-.5.1-1-.2-1.9 0-1.5.2-2.7-.2-3.8 0-.5 0-2.4.1-2.9 0-.3 0-.7-.8-1-1-1.1-.4-.6.9-.7 1-.5.5-2.4-.7-3.1-.5-.9 1.2-2.1-.8-3.4-.5-.8.2-.9 2.2-.7 2.4h1.7ZM72.4 18.4c.5.5 2.6-.7 3.6-.5.5.1 1.2.8 2.4.5.7-.2.6-1.8 1.9 0 6.7-.7 16.4 1.2 22.5-.5.6-.2.8.4 1 .5 2.7.6 8.1-.7 10.5 0 .3 0 .8 1 1 1s.7-.9 1-1c4.2-1.2 12.6 1.1 16.3 0 .7-.2 2.2 1.1 2.6-.2.3-.9.3-1.1-.7-1.2-.7 0-1.8-.1-2.4 0-2.3.4-6.2-.5-9.1 0-3.1.6-7.4-.5-11 .5-.3 0-4.1-.8-5.7-.5-3.5.6-9.1-.5-12.9-.5s-.3.4-.5.5c-1.2.3-1.7-1-1.9-1s-.7.9-1 1c-.9.3-2.7-.2-3.8 0-.2 0-.3.5-.5.5-.3 0 0-.7-1.4-.5-.5 0-2.4.1-2.9 0-.3 0-.7-.8-1-1-1.1-.4-.6.9-.7 1h-2.2c-.9-.2-1.5.1-1.9 0-.6-.2-1.4-1.2-2.4-1-.8.2-.9 2.2-.7 2.4ZM76 41.2c.5.1 1.2.8 2.4.5.7-.2.6-1.8 1.9 0 6.7-.7 16.4 1.2 22.5-.5.6-.2.8.4 1 .5 2.7.6 8.1-.7 10.5 0 .3 0 .8 1 1 1s.7-.9 1-1c4.2-1.2 12.6 1.1 16.3 0 .7-.2 2.2 1.1 2.6-.2.3-.9.3-1.1-.7-1.2-.7 0-1.8-.1-2.4 0-1.1.2-3.2.2-4.3 0-2.1-.4-5.7.7-6.7.5-5.2-1.2-11.2.3-15.8-.5-3.6-.6-10.4.8-13.4 0-.3 0-.8-1-1-1s-.7.9-1 1c-.9.3-2.7-.2-3.8 0-.2 0-.3.5-.5.5-.3 0 0-.7-1.4-.5-.5 0-2.4.1-2.9 0-.3 0-.7-.8-1-1-1.1-.4-.6.9-.7 1-.2.2-4.2.1-4.5 0-.4-.1-.7-1.3-1.9-1l-.7 2.4c1.3.3 2.4-.8 3.6-.5ZM43.2 41.7c.4.4 11.6.2 12.7 0 1.6-.3 2.4-.2 3.8 0 2.1.3 6.8.1 9.1 0 .9 0 1.5.2 2.2-.7l-2.2-1.7c-2.4-.4-1.5.7-1.7 1-.5.5-1.4-.9-1.7-1-.6-.2-1.8 1.1-2.4 1-.4-.1-.7-1.3-1.9-1-1.5.5-2.1-.3-3.8 0-.2 0-.3.4-.5.5-1.1.2-1.2 0-2.4.5-1 .4-.6-.9-.7-1s-2.8 0-3.1 0c-.4.1-1 1.4-1.7 1.4v-1.4c-.5-.5-1.5.9-1.7 1-.7.2-1.1-.9-1.4-1h-2.4c-.4 0-.7 1.2-1.4 1-.3 0-.7-.9-1-1-.5-.1-7.6-.1-8.1 0-.3 0-1.6 1.5-1.2 1.9.8-.3 1 .4 1.2.5 1.4.2 2.7-.7 3.4-.5 2.1.6 2.5 0 4.3.5 1.7.5 1.1-.8 1.2-1h1.4zM31.7 17.9c.8-.3 1 .4 1.2.5 1.4.2 2.7-.7 3.4-.5 2.1.6 2.5 0 4.3.5 1.7.5 1.1-.8 1.2-1h1.4c.2.2-.8 1.4 2.2 1 3-.5 7.6.5 11-.5.2 0 3.1.4 3.4.5 2.1.3 6.8.1 9.1 0 .9 0 1.5.2 2.2-.7L68.9 16c-1.6-.4-2.3 1-2.4 1s-.7-.9-1-1c-.6-.2-1.8 1.1-2.4 1-.4-.1-.7-1.3-1.9-1-1.5.5-2.1-.3-3.8 0-.2 0-.3.4-.5.5-1.1.2-1.2 0-2.4.5-1 .4-.6-.9-.7-1s-2.8 0-3.1 0c-.4.1-1 1.4-1.7 1.4V16c-.5-.5-1.5.9-1.7 1-.7.2-1.1-.9-1.4-1h-2.4c-.4 0-.7 1.2-1.4 1-.3 0-.7-.9-1-1-.5-.1-7.6-.1-8.1 0-.3 0-1.6 1.5-1.2 1.9ZM49 11.8c-.5-.5-1.4.9-1.7 1-.7.2-1.1-.9-1.4-1h-2.4c-.4 0-.7 1.2-1.4 1-.3 0-.7-.9-1-1-.5-.1-7.6-.1-8.1 0 0 0-1.2 1.1-1.2 1.2s1.1 1.2 1.2 1.2c1.3.4 2.6-.7 3.4-.5 2.1.6 2.5 0 4.3.5 1.7.5 1.1-.8 1.2-1 .7-.7 1.9.9 2.2 1 .8.2 9 .2 10.1 0 .9-.1 1.3 0 1.4 0 .2 0 1.3-1 1.4-1 .4 0 0 1.2 2.4.5.6-.2.8.4 1 .5 2.4.5 6.5-.4 9.1 0 .4-.2 1.6-.4 1.7-.5 1.2-1-1-.9-1.2-1-.3-.1-.7-.9-1-1-1.6-.4-2.3 1-2.4 1s-.7-.9-1-1c-.6-.2-1.8 1.1-2.4 1-.4-.1-.7-1.3-1.9-1-1.5.5-2.1-.3-3.8 0-.3 0-2.7 1-2.9 1s-.7-.9-1-1h-2.9c-.3 0-.7.8-1 1-1.1.4-.6-.9-.7-1ZM69.8 32.7c-.6-.2-.7-1.3-2.4-1-1.7.4-3.4.6-5.3 0-.9-.3-1.4.6-1.9.5-2.6-.7-4.4 0-6.7-.5-.4 0-2.5-.1-2.9 0s-1 1.4-1.7 1.4v-1.4c-.5-.5-1.5.9-1.7 1-.7.2-1.1-.9-1.4-1h-2.4c-.4 0-.7 1.2-1.4 1-.3 0-.7-.9-1-1-.5-.1-7.6-.1-8.1 0 0 0-1.2 1.1-1.2 1.2 0 .2 1.5 1.1 1.7 1.2 1 .3 2.7-1.4 3.1-1v1h2.2c.3 0 .8-1 1-1s.7 1.2 1.4 1c.4-.1.7-1.3 1.9-1 .4.1.7 1.3 1.9 1 1.2-.4 3.6-.3 4.8 0 1.9.4 3.6-.4 5.3 0 .8.2 1.1-1.2 1.9-1 .4.1.7 1.3 1.9 1 .2 0 .3-.6 1-.5 2.7.7 5.1.1 7.2.5h2.4c.7 0 .9-.6 1.7-.5.3-1.5-.5-.7-1.2-1ZM69.8 37c-.3-.1-.7-.9-1-1-1.6-.4-2.3 1-2.4 1s-.7-.9-1-1c-.4-.1-2.3 1-2.4 1s-.8-1.3-1.9-1c-1.5.5-2.1-.3-3.8 0-.3 0-2.7 1-2.9 1s-.7-.9-1-1h-2.9c-.4.1-1 1.4-1.7 1.4V36c-.5-.5-1.5.9-1.7 1-.7.2-1.1-.9-1.4-1h-2.4c-.4 0-.7 1.2-1.4 1-.3 0-.7-.9-1-1-.5-.1-7.6-.1-8.1 0 0 0-1.2 1.1-1.2 1.2s1.1 1.2 1.2 1.2c1.4.4 2.6-1 2.9-1 .2 0 .7.9 1 1 1.9.5 2.7-1 2.9-1s.7 1.2 1.4 1c.4-.1.7-1.3 1.9-1 .4.1.7 1.3 1.9 1 1.2-.4 3.6-.3 4.8 0 1.3.3 5.2-.2 6.7-.5 1.5-.2.6.2 1.4.5 1 .3 1.4-.6 1.9-.5 2.7.7 5.1.1 7.2.5h2.4c.7 0 .9-.6 1.7-.5.3-1.5-.5-.7-1.2-1ZM41.8 25.3s1.1 1.2 1.2 1.2c.6.2.8-.4 1-.5.8-.2 6.4-.2 7.2 0 1.6.4 2.5 0 4.3-.5 1.2-.4 1.7 1 1.9 1s.7-.8 1.9-.5c1.6.4 4 .3 5.7 0 1.5-.3 3.5.2 5 0l-1.2-1.4c-1.1.3-.6-.8-.7-1h-1.9s.3 1.4-.7 1c-.3-.1-.7-.8-1-1-1.1-.4-.6.9-.7 1h-2.4v-1H60v1c-.2.3-.9-.9-1.2-1h-2.4c-.4 0-.7 1.2-1.4 1-.2 0-.3-.5-.5-.5s-.3.4-.5.5c-1.8.4-1-.8-1.2-1h-2.6c-.2 0-1.4 1.4-2.2 1.4v-1.4c-1.4-.5-.8.9-1 1h-1.4v-1c-.2-.2-2.7.1-3.4 0 .2.8-.7 1.1-.5 1.7ZM164.3 27.5h2.4c.1-.1 0-2.7 0-2.9-.2-.2-.6.7-1.2.5-1.8-.5-1 .1-2.4.5-.6.2-1.8-1.1-2.4-1-.3 0-.7.9-1 1-.6.2-.8-.7-1.4-.5-1.4.4-.8-.3-1.4-.5-1.4-.4-2.6 1-2.9 1s-1.4-1.2-2.4-1c-.3 0-.8 1-1 1s-.7-1.2-1.4-1c-2 .5-3.5-.4-5.7 0-2 .4-3-.2-5.3.5-.6.2-.7-.4-1-.5-.7-.2-2.1 1.5-1.7 1.9.6.5 1.6-.5 1.7-.5.2 0 .3.4.5.5h.7c.1.1-.4 1.1.5 1 0-.4-.2-.9.2-1h2.6c.1.1-.4 1.1.5 1-.1-1.1-.2-1.8 1.2-1.4 3 .9 3.7-.4 5.7 0 .2 0 .3.4.5.5.5 0 2-.1 2.2 0 0 0-.3 1.4.7 1 .3-.1.7-.9 1-1 2.2-.6 1.6.8 1.7 1h1.9s0-1.4.7-1.4c.3 0 1.8 1.4 1.9 1.4 2.2.6 1.6-.8 1.7-1 .4-.4 1.1.5 1.2.5 0 0 1.2-1.5 1.7-1 .1.1-.1 1.3 0 1.4M165.3 42.7h2.4c.1 0 0-2.3 0-2.4-.4-.4-1.1.5-1.2.5-1.2 0-2.6-.2-3.8-.5-1.6-.4-2.2 1-2.4 1-.8 0-2.6-1.3-4.3-1-2.3.4-5.1.3-7.2 0-1.4-.2-9.7-.3-11 0-.2 0-1.4.9-1.7 1.2.7 1.5 2.4-.3 2.9.2 0 0-.3 1.4.7 1 .3-.1.8-1 1-1s.3.6 1 .5c.5-.1.4-.8 1.4.5.5 0 .1-.8.2-1 .5-.5 1.6.5 1.7.5 1.5.2 2.2-.4 2.9-.5 1-.1 3.8.2 4.8.5.2 0 .3.6 1 .5.3 0 .7-.9 1-1 .6-.2 1.5 1.5 3.4 1 .4 0 .7-1.2 1.4-1 .5.1.7 1.3 2.4 1 .2 0 .3-.4.5-.5 1.1-.2 1.2 0 2.4-.5 1-.4.6.9.7 1ZM139 18.4s-.3 1.4.7 1c.3-.1.7-.9 1-1 1-.3 1.8.2 2.4 1 .5 0 .1-.8.2-1 .5-.5 1.6.5 1.7.5 1.9.3 3.6-.9 5.3-.5 1.5.3 1.1 0 1.4 0 .1 0 1.4 1.1 1.9 1 .3 0 .7-.9 1-1 .6-.2 1.5 1.5 3.4 1 .4 0 .7-1.2 1.4-1 .5.1.7 1.3 2.4 1 .2 0 .3-.4.5-.5 1.1-.2 1.2 0 2.4-.5 1-.4.6.9.7 1h2.4c.1 0 0-2.3 0-2.4h-2.6c-.2 0-.7.8-1.9.5-2.9-.7-2.5.5-2.9.5-.8 0-2.6-1.3-4.3-1-2.1.4-5.2.3-7.2 0-1.4-.2-9.7-.3-11 0-.2 0-1.4.9-1.7 1.2.7 1.5 2.4-.3 2.9.2ZM136.1 13.9c.7 1.5 2.4-.3 2.9.2 0 0-.3 1.4.7 1 .6-.2.8-1.4 2.4-1 .3 0 .7 1 1.2 1-.4-1.3 1-1.1 2.2-1 2.1.3 3.1-.1 5.3.5.6.2.8-.5 1-.5.1 0 1.4 1.1 1.9 1 .3 0 .7-.9 1-1 1.7-.5 1.1.8 1.2 1h2.2c.4 0 .7-1.2 1.4-1 .5.1.7 1.3 2.4 1 .2 0 .3-.4.5-.5 1.1-.2 1.2 0 2.4-.5 1-.4.6.9.7 1h2.4c.1 0 0-2.3 0-2.4h-2.6c-.2 0-.7.8-1.9.5-2.9-.7-2.5.5-2.9.5-.7 0-2.2-1.3-4.3-1-1.5.3-3.4.3-4.8 0-1.6-.3-11.5-.3-13.4 0-.9.1-1.1.7-1.7 1.2Zm26.1-.2c.3 0 .3.5 0 .5s-.3-.5 0-.5M167.7 32.7c-.1-.1-2.7 0-3.1 0-.1 0-.5.7-1.4.5-.4-.1-.7-1.2-1.4-1-.4.1-.7 1.3-1.9 1-1.6-.5-2.1-.7-4.3 0-1 .3-2.2-1-2.4-1s-.4.7-1.9.5c-3.7-.6-7 .5-10.5-.5-.3 0-2.4.9-3.4.5l-1.2.7c.3.2 1 1.2 1.2 1.2s.3-.4.5-.5c1.8-.4 1 .8 1.2 1 1 1 .9-.9 1-1h2.2c.3 0 .7 1 1.2 1 0-.7-.2-1.8.7-1.4.5.2 2.6 1 2.9 1 1.3-.3 3.8-.9 5.3-.5.4 0 .7 1.2 1.4 1 .3 0 .7-.9 1-1 1.7-.5 1.1.8 1.2 1h2.4c.1-.1-.5-1.4 1.2-1 .6.2.7 1.3 2.9 1 0 0 1-.3 1.4-.5.5-.1.9-1.7 1.7-.2.1.2 0 .6 0 .7h2.4c.1 0 0-2.3 0-2.4Zm-5.5 1.4c-.3 0-.3-.5 0-.5s.3.5 0 .5M34.4 29.8c.7-.2 1.1.9 1.4 1 .4.1 4.3-1.2 5.3-1 2.2.5 2.1.6 4.3 0 .5-.1 4.6 1.4 5.3.5l2.6-.2c0-1.2-.8-1.1-1.7-1.2-2.3-.3-2.5-.5-4.8 0-1.1.3-3.8-.9-5.7-.5-2.2.5-5.3.4-7.7 0-1-.2-2.7.3-3.8.5-.2 0-.3.5-.5.5S27.9 28 27.7 28s-.8 1.3-2.9 1c-.2 0-.3-.5-.5-.5h-2.6c-.3.3 0 2.4.7 2.4s.3-.5.5-.5.3.6 1 .5c.4 0 .7-1.2 1.4-1 1.7.5 3.1.9 4.8.5 1.4-.4 1.2.3 1.9.5 1.7.4 1.9-.8 2.4-1ZM165.3 10.8h2.4c.1 0 0-2.3 0-2.4h-2.6c-2.4.4-4.8.3-6.7 0-2-.3-5.5.7-7.2 0h-13.9c-.6.2-1 1.7-.7 1.9.3.3 2-.9 2.4-.5 0 0 0 2 1 1v-1h2.2c.3 0 .7 1 1.2 1 0-.7-.2-1.8.7-1.4.7.3 2.8 1.1 3.4 1 1.2-.4 2.8-.8 4.3-.5.2 0 1.2.9 1.4 1 .7.2 1.1-.8 1.4-1 1.7-.5 1.1.8 1.2 1h2.2c.4 0 .7-1.2 1.4-1 .5.1.7 1.3 2.4 1 .2 0 .3-.4.5-.5 1.1-.2 1.2 0 2.4-.5 1-.4.6.9.7 1Zm-3.1-.9c-.3 0-.3-.5 0-.5s.3.5 0 .5M167.7 37h-2.6c-2.4.4-4.8.3-6.7 0-2-.3-5.5.7-7.2 0h-13.9c-.6.2-1 1.7-.7 1.9.3.3 2-.9 2.4-.5 0 0 0 2 1 1v-1h2.2c.3 0 .7 1 1.2 1 0-.7-.2-1.8.7-1.4.5.2 2.6 1 2.9 1 1.3-.3 3.8-.9 5.3-.5.4 0 .7 1.2 1.4 1 .3 0 .7-.9 1-1 1.7-.5 1.1.8 1.2 1h2.2c.4 0 .7-1.2 1.4-1 .5.1.7 1.3 2.4 1 .2 0 .3-.4.5-.5 1.1-.2 1.2 0 2.4-.5 1-.4.6.9.7 1h2.4c.1 0 0-2.3 0-2.4Zm-5.5 1.4c-.3 0-.3-.5 0-.5s.3.5 0 .5M128.7 19.8s-1.2.9-1.4 1c-.4.1-2.3-1-2.4-1s-.8 1-1 1-.8-1.4-2.4-1c-.3 0-.7.8-1 1-.2 0-2.4 0-1.2 1 0 0 1.3.3 1.7.5 2.9-.3 6.8.5 9.6 0 .3 0 3.2-.5 3.4-.5 1.7.5 2.9.7 4.3.5 1.2-.2 6-.2 7.2 0 .2 0 .3.4.5.5 1 .4.6-.9.7-1h.7c.4 0 .3-1.4.2-1.4-.1-.1-3.2 0-3.6 0-.2 0-.3.6-1 .5-.5-.1-.9-1.7-1.7-.2-.1.2 0 .6 0 .7-.1.2-1.5-.9-1.7-1-1.4-.3-3.6.5-3.8.5-2.4-.7-4.9-.9-7.2-1ZM28.6 19.4c-.7-.2-1.1.8-1.4 1-1 .3-1.3-.5-1.4-.5-.4 0-3-.1-3.1 0v1.9h2.2c.3 0 .8-1 1-1s.7.9 1 1c1.5.4 4.5-.5 4.8-.5.2 0 1.2.9 1.4 1 1.2.4 1.5-.8 1.9-1 1.2-.3 1.5.8 1.9 1 .5.1 1.8-1 1.9-1s.3.6 1 .5c2.7-.7 3.6.3 6.2-.5.6-.2 1.9.7 3.4.5.2 0 .3-.5.5-.5s.7 1.2 1.4 1c.4-.1.4-.9 1.2-.7.7.2 2 .2 1.9-.5 0-.3-1.8-1.3-2.2-1.2-.2 0-.3.5-.5.5s-.3-.4-.5-.5c-1.9-.3-3.2.4-4.8 0-2.8-.6-6 .8-8.6 0-.8-.2-1.6.8-2.9.5-2.3-.5-2.5-.5-4.3 0-1.2.3-1.5-.8-1.9-1ZM137.8 30.8c1.9-.4 3.7.5 5.3 0 1.2-.4 1.4.7 1.9 1 1 .4.6-.5.7-.7.2-.4 1.7-1.5 1-2.1-.1-.1-2.7 0-3.1 0-.1 0-.5.8-1.4.5-2-.6-1.5.5-1.9.5s-2.1-1.4-4.3-1c-1.2.3-3.2.3-4.8 0-1.5-.3-1.7.2-2.9 0-1.4-.2-1.3.8-2.4.5-2.1-.6-2 0-2.9 0s-.7-1.3-1.9-1c-.3 0-.7.9-1 1-.2 0-2.9-.1-1.7 1 0 0 1.3.3 1.7.5 2.9-.3 6.8.5 9.6 0 1-.2 1.5.2 2.4 0 1.9-.4 3.8.4 5.7 0ZM30.8 25.6c.7-.3 2 1 2.2 1s2-1.1 2.4-1 .8 1.4 2.4 1c.4 0 .7-1.2 1.4-1 .8.2.5 1.8 2.2-.2-.2-.4-.4-1.6-.5-1.7-.3-.3-7.8 0-9.1 0s0 .8 0 1c0 .1-1.4-.4-1 1ZM156 31.7c.4-.1.7-1.3 1.7-1 .4-.4-.9-1.8-1.2-1.9-.5-.1-4.2-.1-4.8 0-.2 0-.3.4-.5.5-.6.2-.8-.4-1-.5-.7-.2-2.4 0-2.6.7-.3.9.6 1.3.5 2.1.7-.1 1.8-2 2.4-1.4 0 0 0 1.2.7 1.4h1.7s0-1.2.7-1.4c.2.6 1.2.4 1.2.5.1.1-.5 1.4 1.2 1M151.4 22.7h1.7c.3 0 .7-.9 1-1 .6-.2 1.8 1.3 2.9 1 .2 0 1.7-1 1.7-1.2 0 0-1.1-1.2-1.2-1.2-.6-.2-4.5-.1-5.3 0-.2 0-.3.5-.5.5s-.3-.4-.5-.5c-1.2-.2-3.1 0-2.6 1.7.2.9 1.1.5 1.7.2.2 0 .3-.4.5-.5 1-.4.6.9.7 1ZM169.6 29.8c-.1-.1-.9.3-1-.2v-.7H166c-1.4.2-3.8.2-5.3.5-1 .2-2.7-.7-2.2 1.2.4 1.5 1.5-.2 1.9-.5.5-.3.9-.3 1.4-.2l1 1.9c-.6-1.8 2-.6 2.4-1 .1-.1-.4-1.1.5-1 0 2.1.5 2.1 1.9 1-.4.8.5 1.4 1 1v-1s2 0 1-1M170.6 22.2c.5-1.4-.9-.8-1-1v-1H167c-1.8.3-4.2.2-6.2.5-.8 0-1.9-.5-1.7.7 2.3 2 1.8-.1 1.9-.2h1.9s-.1.5 0 .7c.7 1.2 1 .3 1.2.2 1.2-.2 1.6 0 2.6-1-.3 2.7 1 .8 1.7 1 .2 0 .3.6 1 .5.2 0 .4-.7 1.2-.5ZM19.8 17.2c.4.2.9 1.1 1.2 1.2.6.2.8-.6 1.4-.5 0 0 .8.9 1.2.5.2-.2-.3-1.3.2-1.4.7 1.2 1.5.7 2.4 1 0 0 .8.9 1.2.5.1-.1-.1-1.3 0-1.4 0 0 2.7.1 1.4-1-.5-.5-1.7.6-2.2.5-.2 0-.3-.4-.5-.5-.5-.1-5.3-.2-5.5 0v.7c0 .5-1 0-1 .5ZM19.3 25.3s1.1 1.2 1.2 1.2c.2 0 .3-.4.5-.5 1.4-.2 1.9.7 1.7-1.4 1 1.1 1.6.7 2.6 1 .2 0 1.1 1 1.7.5.1-.1-.8-1-.5-1.4.2-.2 1.9.6 1.4-1-.9-.3-1.2.8-1.7 1-1.1.4-.6-.9-.7-1-.2-.2-4.8.1-5.7 0 .2.8-.7 1.1-.5 1.7ZM24.8 33.6c.1 0 .3-.6 1-.5.3 0 .8 1 1 1s.3-.4.5-.5h.7c.2-.2-.5-.6-.5-.7 0-.2.7-.8 1.2-.7.5.2.6.8.7 1.2.2.4 1.4.3 1.4.2l.2-1.4c-.6-.9-.9.3-1.9 0-1.3-.4-1.6-.2-2.9-.5-.8-.2-3.8-.1-4.8 0-.7 0-.9.6-1.7.5l1.2 1.4c.6-.1 2.5.1 2.6 0v-1c.2-.3 1 1 1.2 1ZM28.9 11.8c-.9-.4-1.7.6-2.2.5-.2 0-.3-.4-.5-.5-.8-.2-2.4.2-2.2 1.2.3 1.2 1.2.1 1.7.2.4.1.7 1.2 1.4 1 1.1-.3.2-1.4.2-1.4s1.4 0 1.4-1ZM30.8 37.9l.2-1.4c-.6-.9-.6-.1-1 0-.9.3-1.5-.7-2.4-.5-.4.8-1.6.4-1.7.5-.3.3.2 1.9.7 1.9.1 0 .5-.7 1.2-.5-.5-.6-.5-1.2.2-1.4.8-.2 1 .7 1.2 1.2.2.4 1.4.3 1.4.2Z"/><path d="M30.5 18.4c1.1-.3.7-2.4 0-2.4s-.3.4-.5.5h-.7c-.4.4.2 2.2 1.2 1.9M30.5 41.7c1.1-.3.7-2.4 0-2.4s-.3.4-.5.5h-.7c-.4.4.2 2.2 1.2 1.9M30.1 14.1c.2 0 1.3-1.2 1.2-1.7-.3-1.1-1-.3-1.2-.2h-.7c-.3.3.2 1.9.7 1.9M28.4 24.6c.2 2.9 2.8.4 1.9-.5-.3-.3-1.3.7-1.9.5"/><path d="M27.4 39.3c-1.3 1.3 2.7 1.3 1.4 0z"/></g><path fill="none" d="M77.9 45c-.3 0-.3.5 0 .5s.3-.5 0-.5M162.2 14.1c.3 0 .3-.5 0-.5s-.3.5 0 .5M162.2 9.4c-.3 0-.3.5 0 .5s.3-.5 0-.5M162.2 37.9c-.3 0-.3.5 0 .5s.3-.5 0-.5M141.1 46.9c-.3 0-.3.5 0 .5s.3-.5 0-.5M162.2 33.6c-.3 0-.3.5 0 .5s.3-.5 0-.5M141.1 4.2c.3 0 .3-.5 0-.5s-.3.5 0 .5M132.5 45c-.3 0-.3.5 0 .5s.3-.5 0-.5M21.5 42.7c-1.4-1.1-.2-1.5-.2-1.7 0-.6-.6.2-.7.2-.6 0-.7-1.4-.7-1.4-.4-.4-.7.7-1.4-.7-.4-.7-1.8-1.6-2.4-2.4-.8-1-1.6-2.6-1.9-3.8-.1-.4.1-1 0-1.4 0-.3-.9-.7-1-1 0-.3-.6-5.4-.5-5.7.4-1.4-.3-1.2-.5-1.9-.4-1.7.8-1.9 1-2.4.2-.7-.2-2 0-2.9.2-.7 1.8-2.6 1.9-2.9.1-.4-.1-1.5 0-1.7.3-.3.4.7 1-.7.7-1.5 1.8-1.8 2.4-2.9.1-.2 1.6-1.6 1.7-1.7.4-.1 1.5.1 1.7 0v-1c0-.1 1.4.4 1-1-.8.7-1.4.3-2.2.5-.2 0-.3.4-.5.5-.6.2-.8-.7-1.4-.5-.2 0-.3.6-1 .5-.3 0-.8-1-1-1S15.7 7 15.4 7.1c-.8.2-1.5 0-2.2 1.2 0 .1 0 1.6-1 .7 0 0 0-2-1-1 0 0 .1.5 0 .7-.4.7-2.3 1.9-2.4 2.4-.4 1.4-.7 1.4-.5 2.4.2.9-1.7 1.5-1.4 2.4.4 1.3-.2 1-.5 1.9-.1.5.8 1.3.5 1.7 0 0-1.4-.3-1 .7.7 1.5 0 1.1 0 1.4s.9.8.5 1.2c0 0-1.4-.3-1 .7 0 .2.4.3.5.5v1c.1.4 1.2.7 1 1.4s-.2 1.1-.5 1.9c0 .2.4 3 .5 3.3 0 .3.9.7 1 1 .8 2.7 2.3 5.3 4.5 6.9 1 .7 2.1 3 3.4 3.3.6.2 1.8-.2 2.4 0 .3 0 .7.9 1 1 .6.2.7-.5 1.4-.5s.9.6 1.9.5c.4 0 .3-.9.2-1 0 0-.5 0-1.2-.5Z"/></svg>
