<svg xmlns="http://www.w3.org/2000/svg" xml:space="preserve" style="fill-rule:evenodd;clip-rule:evenodd;stroke-linecap:round;stroke-linejoin:round;stroke-miterlimit:1.5" viewBox="0 0 960 982"><path d="M0 0h960v981.2H0z" style="fill:none"/><path d="M480 60.6c68.1 0 132.5 15.9 189.7 44.1 5 2.4-3.4 8.6-3.4 8.6l-84.8 122.2 8.8 65.6 84.2 77.4 141 196.5h86.2l-.6 3C860.6 773.5 687.4 920.6 480 920.6c-237.3 0-430-192.7-430-430s192.7-430 430-430" style="fill:#fff"/><clipPath id="a"><path d="M480 60.6c68.1 0 132.5 15.9 189.7 44.1 5 2.4-3.4 8.6-3.4 8.6l-84.8 122.2 8.8 65.6 84.2 77.4 141 196.5h86.2l-.6 3C860.6 773.5 687.4 920.6 480 920.6c-237.3 0-430-192.7-430-430s192.7-430 430-430"/></clipPath><g clip-path="url(#a)"><path d="m-204.8 566.3 688.5-688.5M-197.6 573.5 490.9-115M-190.4 580.7l688.5-688.5M-183.2 587.9l688.5-688.5M-176 595.1 512.5-93.4M-168.8 602.3 519.7-86.2M-161.6 609.5 526.9-79M-154.4 616.7 534.1-71.8M-147.2 623.9 541.3-64.6M-140 631.1 548.5-57.4M-132.7 638.3 555.7-50.2M-125.5 645.5 562.9-42.9M-118.3 652.7 570.1-35.7M-111.1 659.9 577.3-28.5M-103.9 667.1 584.5-21.3M-96.7 674.3 591.7-14.1M-89.5 681.5 598.9-6.9M-82.3 688.7 606.1.3M-75.1 695.9 613.3 7.5M-67.9 703.1 620.6 14.7M-60.7 710.3 627.8 21.9M-53.5 717.6 635 29.1M-46.3 724.8 642.2 36.3M-39.1 732 649.4 43.5M-31.9 739.2 656.6 50.7M-24.7 746.4 663.8 57.9M-17.5 753.6 671 65.1M-10.3 760.8 678.2 72.3M-3.1 768 685.4 79.5M4.1 775.2 692.6 86.7M11.3 782.4 699.8 93.9M18.5 789.6 707 101.1M25.7 796.8l688.5-688.5M32.9 804l688.5-688.5M40.2 811.2l688.4-688.5M47.4 818.4l688.4-688.5M54.6 825.6 743 137.2M61.8 832.8l688.4-688.4M69 840l688.4-688.4M76.2 847.2l688.4-688.4M83.4 854.4 771.8 166M90.6 861.6 779 173.2M97.8 868.8l688.4-688.4M105 876l688.4-688.4M112.2 883.2l688.5-688.4M119.4 890.4 807.9 202M126.6 897.7l688.5-688.5M133.8 904.9l688.5-688.5M141 912.1l688.5-688.5M148.2 919.3l688.5-688.5M155.4 926.5 843.9 238M162.6 933.7l688.5-688.5M169.8 940.9l688.5-688.5M177 948.1l688.5-688.5M184.2 955.3l688.5-688.5M191.4 962.5 879.9 274M198.6 969.7l688.5-688.5M205.8 976.9l688.5-688.5M213 984.1l688.5-688.5M220.3 991.3l688.4-688.5M227.5 998.5l688.4-688.4M234.7 1005.7l688.4-688.4M241.9 1012.9l688.4-688.4M249.1 1020.1l688.4-688.4M256.3 1027.3l688.4-688.4M263.5 1034.5l688.4-688.4M270.7 1041.7l688.4-688.4M277.9 1048.9l688.4-688.4M285.1 1056.1l688.4-688.4M292.3 1063.3l688.5-688.4M299.5 1070.6 988 382.1M306.7 1077.8l688.5-688.5M313.9 1085l688.5-688.5M321.1 1092.2l688.5-688.5M328.3 1099.4l688.5-688.5M335.5 1106.6 1024 418.1M342.7 1113.8l688.5-688.5M349.9 1121l688.5-688.5M357.1 1128.2l688.5-688.5M364.3 1135.4l688.5-688.5M371.5 1142.6 1060 454.1M378.7 1149.8l688.5-688.5M385.9 1157l688.5-688.5M393.1 1164.2l688.5-688.5M400.4 1171.4l688.4-688.5M407.6 1178.6 1096 490.2" style="fill:none;stroke:#b8b8b8;stroke-width:5.4px"/></g><clipPath id="b"><circle cx="480" cy="490.6" r="430"/></clipPath><g clip-path="url(#b)"><path d="m394.8 41.8 19 5.4 13.6 5.5 13.6 2.7 10.8 5.4h2.8v2.7l-5.5 5.5-2.7 10.8-5.4 16.3-8.2 16.3-2.7 16.3-2.7 5.4-2.7 8.2v2.7l-8.2 8.1-5.4-5.4-13.6 8.1-16.3 8.2v2.7l13.6 10.9-8.1 13.5-2.7 2.8h-5.5l5.5 2.7-19 10.8 2.7 5.5 10.8 13.5 13.6 21.8-16.3 10.8-8.1 2.7-5.5 5.5-16.3-21.8-21.7-35.3-10.8-5.4h-2.7l-2.8 5.4v2.8l-5.4 2.7-8.1 2.7h-5.5l-5.4 2.7-13.6-21.7-5.4-10.9-5.4 2.7-21.8-35.3-13.5-21.7-2.7-5.4-13.6-21.7v-2.7l2.7-2.8v2.8l5.4-5.5 2.7 2.7v-5.4h5.5v-2.7h2.7V88l2.7-2.8h-2.7v-5.4 2.7h2.7v-5.4h-2.7l2.7-2.7h2.7V69l5.4-2.8 5.5 5.5h2.7V69l2.7-2.8-2.7-2.7v-2.7h-2.7l2.7-2.7v-2.7h8.1l5.5 2.7v2.7l5.4 2.7h2.7l10.9 5.5 8.1-2.8V69l5.4 2.7h2.8l5.4 5.4v-2.7l2.7 2.7 5.4-5.4h2.8l5.4 5.4h2.7l2.7 2.7 5.4 2.7 5.5-5.4v-2.7l-2.7-5.4v-2.8h-2.8l-2.7-5.4v-2.7l-2.7-8.1-5.4-5.5h-2.7v-2.7l-2.7-5.4v-2.7l-5.5-5.5 2.7-2.7 2.8-5.4h5.4l5.4 2.7 16.3 5.4 19 5.5 8.2 2.7h8.1l16.3 2.7z" style="fill:#a10413;fill-rule:nonzero"/><path d="m313.4 286.2 21.7 21.7 13.6 5.4 10.8 5.4 8.2 2.8 2.7 8.1 2.7 2.7v2.7l-5.4 5.5-27.2 24.4-2.7 2.7-5.4-2.7-2.7 2.7h-2.8l-8.1 5.5-16.3-19.1h-2.7l-24.4-32.5 2.7-8.2v-5.4l5.4-2.7v-2.7l2.7-2.8v-16.2l-2.7-2.8 2.7-5.4v-2.7l-8.1-8.2V259l5.4 5.4 8.1 5.5 2.8 2.7v2.7l13.5 8.2z" style="fill:none;fill-rule:nonzero"/><path d="m628.3 345.9-2.7 5.4v2.7l-5.4 2.8H612l-5.4 5.4-5.4 2.7-13.6 5.4-8.1 16.3v5.5l-5.5-5.5-8.1-13.5v-2.8l-2.7-5.4-2.8-2.7h2.8l-2.8-5.4-2.7 2.7-5.4 2.7-16.3-13.6 16.3-13.6h2.7l5.4-2.7v-2.7l46.2-21.7 5.4-2.7v5.4l2.7 2.7v10.9l5.5 5.4v8.2z" style="fill:#c10517;fill-rule:nonzero"/><path d="m275.4 321.5 24.4 32.5h2.7l16.3 19.1v2.7l13.6 10.8 2.7 2.7 13.6 10.9 8.1 10.9 16.3 13.5 5.4 2.8-5.4 2.7-2.7 5.4v2.7l-2.7 2.7v10.9l-2.7 2.7h-2.8v5.4l-2.7 2.8v5.4h-5.4l-8.2 8.1-5.4 2.7-2.7 2.8v2.7l-5.4 2.7h-8.2l-2.7 2.7h-5.4l-5.4 2.7-8.2 2.7-5.4 5.5h-8.2l-2.7 2.7h-5.4v2.7l-2.7 2.7h-2.7l-2.8 2.7h-2.7l-2.7-2.7h-2.7v2.7l-8.2 2.7-5.4-2.7h-19l-5.4-2.7h-2.7l-2.7-5.4-10.9-5.5-2.7-5.4v-2.7l2.7-2.7v-10.9l2.7-2.7v-5.4l-2.7-2.7v-2.7l2.7-8.2v-5.4h-2.7l19-10.9-8.1-13.6-10.9-21.7-5.4-5.4 5.4-2.7 13.6-8.2 16.3-10.8 8.1-10.9 5.4-5.4 2.7-5.5v-8.1h2.8l2.7-5.4 8.1-8.2 2.7-5.4v-5.4z" style="fill:#a10413;fill-rule:nonzero"/><path d="m555 481.7 24.5 21.7 8.1 8.1 13.6 10.9 16.3 13.6 2.7 2.7-24.5 24.4v2.7H593l-5.4-5.4h-2.7l-2.7-2.7h-2.7l-2.8-2.7v2.7l-2.7 5.4v2.7l-5.4 5.5v2.7h-2.7l-2.7 2.7h-5.5l-5.4 2.7h-2.7v2.7l-5.4-2.7-2.8 2.7v5.4h2.8v5.5H536l-5.4-5.5h-2.7v2.8l-2.8 2.7h-10.8l-2.7 2.7v2.7l2.7 2.7h-2.7l-2.7 2.7h-2.8v5.5l2.8 2.7h-2.8l-2.7 2.7H498l-2.7 2.7v2.7l-2.7 5.5v5.4l-2.7 2.7v2.7h-2.8v2.7l-5.4 5.5v2.7L479 650h-5.4l-8.2 8.1h-2.7V669l-2.7 2.7-2.7 5.4v2.8l-2.7 5.4-5.5 2.7v8.2h-2.7l-2.7 5.4H441v2.7l-2.7 2.7v2.7l-2.8 2.7v2.8l-2.7 2.7v13.5l-8.1 8.2-5.4 2.7-2.8 2.7h-2.7l-5.4 2.7-2.7 2.8H403l-5.5 2.7-5.4 5.4H384l-10.9-8.1-8.1-8.2-5.5-8.1-5.4-2.8-16.3-16.2-13.6-10.9-5.4-5.4 13.6-10.9-19-16.3-5.5-5.4h19l5.5-2.7h10.8l5.5-5.5v-2.7h5.4v2.7l2.7-2.7h10.9l5.4-5.4h2.7l-16.3-16.3-13.6-10.9-10.8-10.8 21.7-19 21.7 21.7L403 593l5.4 8.1 8.1-5.4 8.2-8.2-16.3-16.2 5.4-2.8 5.5-5.4 10.8-8.1 5.4 2.7 13.6-10.9-8.1-5.4 5.4-10.9 13.6-10.8 32.6-32.6 10.8-8.2 2.7-2.7-2.7-5.4 13.6-2.7v-2.7h2.7l10.9-5.5 19 19z" style="fill:#4b0000;fill-rule:nonzero"/><path d="m1049.2 625.6-8.2 8.1-48.9 40.7-10.8 8.2-10.9 10.8-21.7 19-32.6 27.2h2.7l-21.7 19-29.8 27.2-10.9 10.8 2.7 5.4-8.1 5.5-24.5-21.7-8.1-8.2 16.3-16.3 21.7-19 13.6-10.9 16.3-16.2-8.2-24.5-2.7-21.7-5.4-10.9h-2.7l-10.9-5.4-21.7-5.4-10.9-10.9-5.4-2.7-8.2-10.9-5.4-8.1 10.9-5.4 8.1-2.7 19-13.6 35.3-19 8.2 5.4 2.7 2.7 5.4 2.7h2.7l5.5 2.7h2.7l5.4 2.8h29.9l10.8 2.7v-2.7l16.3 8.1h2.7l2.7 2.7 5.5 2.7 8.1 5.5 2.7 2.7 10.9 2.7 2.7 2.7 10.9 2.7h2.7l8.1 2.7h16.3z" style="fill:#c10517;fill-rule:nonzero"/><path d="m658.2 454.5-24.4 2.7-8.2-16.3-2.7-8.1 5.4-2.7 10.9 2.7 5.4-2.7 8.2-2.7 2.7 5.4v8.1z" style="fill:#e3051b;fill-rule:nonzero"/><path d="m283.5-278.6 8.1 2.7 2.8-2.7 10.8 2.7 8.2-2.7 16.3-8.1 13.5-2.7h5.5l5.4 2.7h2.7l5.4 2.7 19 19 5.5 2.7 5.4 5.4 2.7 5.5 8.2 8.1 2.7 5.4 8.1 8.2 10.9 13.6 2.7 2.7 5.4 8.1 5.5 2.7 2.7 2.8-5.5 2.7-2.7 2.7-46.1 21.7-13.6 5.4-21.7 10.9-29.9 13.6h-5.4l-5.4 2.7v8.1l10.8 10.9 8.2 10.9 2.7 2.7 5.4 8.1 5.4 5.5 5.5 2.7v2.7l-2.8 2.7h-2.7l2.7 2.7v5.4l2.8 5.5v5.4l2.7 2.7 8.1 2.7h5.5v13.6l8.1 2.7h21.7l2.7 2.7h13.6l8.2 2.8-2.8 2.7v5.4l-2.7 8.1v13.6l-5.4 10.9-2.7 2.7-8.2 5.4v13.6l-2.7 8.1v10.9l-5.4-2.7-16.3-2.7H365l-8.2-2.7-19-5.5-16.3-5.4-5.4-2.7h-5.4l-2.8 5.4-2.7 2.7 5.5 5.5v2.7l2.7 5.4v2.7h2.7l5.4 5.5 2.7 8.1v2.7l2.7 5.4h2.8V69l2.7 5.4v2.7l-5.5 5.4-5.4-2.7-2.7-2.7h-2.7l-5.4-5.4h-2.8l-5.4 5.4-2.7-2.7v2.7l-5.4-5.4h-2.8l-5.4-2.7v-2.8l-8.1 2.8-10.9-5.5h-2.7l-5.4-2.7v-2.7l-5.5-2.7h-8.1v2.7l-2.7 2.7h2.7v2.7l2.7 2.7-2.7 2.8v2.7h-2.7l-5.5-5.5-5.4 2.8v5.4h-2.7l-2.7 2.7h2.7v5.4h-2.7v-2.7 5.4h2.7l-2.7 2.8v5.4h-2.7v2.7h-5.5v5.4l-2.7-2.7-5.4 5.5v-2.8l-2.7 2.8v2.7l-2.7-2.7-5.5 5.4v2.7h-2.7l2.7 2.7-2.7 2.7h-2.7v5.5h-2.7v5.4l-2.7 2.7 2.7 2.7v2.7l-2.7 2.8 2.7 5.4v2.7l-2.7 2.7 8.1 8.2v5.4h-2.7v2.7h-5.4v2.7l-2.7 5.4h2.7l-2.7 2.8v2.7h2.7l-2.7 2.7-10.9-13.6-2.7-2.7-8.2-10.9-2.7 2.8-10.8-16.3-2.8-2.7-16.2-24.5-2.8 2.7-8.1-5.4L96.2 88v-5.5L74.4 60.8l2.8-2.7L66.3 50 52.7 36.4l2.7-5.5-19-19-8.1 2.8h-5.5l-5.4-5.5L9.3-1.6 12-15.2l2.7-2.7L31-28.8h2.7l13.6-8.1 27.1-13.6 21.8-13.6 16.2-8.1 19.1-10.9 8.1-5.4 5.4-5.4v-8.2h-2.7l-2.7-5.4-2.7-2.7-5.4-2.8-10.9-2.7-5.4-2.7-5.5-5.4 8.2-8.2v-8.1l8.1-24.4 10.9-38.1 8.1-27.1 2.7-13.6 5.5-13.6 2.7-16.2 5.4 5.4h5.5l5.4-2.7h5.4l5.4-5.5h48.9l2.7 2.8h2.7l5.5-2.8 10.8 2.8 8.2-2.8 10.8 2.8 5.5-2.8h5.4z" style="fill:#75010c;fill-rule:nonzero"/><path d="M709.8 402.9h8.1l2.7 2.7h-5.4 8.2v2.7h-5.5 5.5v2.8h-2.8v2.7l2.8-2.7v2.7l-8.2 2.7h2.7v2.7h-2.7v5.4l10.9-5.4 10.8 10.9v2.7l5.5 5.4v5.4l-5.5 2.8h-10.8l-5.5 8.1h-5.4l-2.7 2.7v-2.7h-5.4l-2.8 2.7v2.7l-2.7 2.8v-2.8h-2.7l-5.4 2.8-2.7-8.2v-29.9h5.4v-8.1l5.4-5.4-2.7-2.8-5.4-2.7 2.7-2.7h5.4l2.7 2.7z" style="fill:#3c0000;fill-rule:nonzero"/><path d="m690.8 454.5 2.7 8.2 5.4-2.8h2.7v2.8l2.7-2.8v-2.7l2.8-2.7h5.4v2.7l2.7-2.7h5.4l5.5-8.1h19v5.4h-2.7l5.4 2.7-2.7 2.7h-2.7l-2.8-2.7h-2.7l2.7 2.7v2.7l-8.1 2.8-2.7 2.7-5.4 2.7v2.7l2.7 2.7-5.5 5.4h-2.7l-5.4 2.8v2.7l-5.4 2.7h-2.8l-8.1 2.7h-2.7l-2.7 2.7h-8.2l-2.7-2.7h-19l-2.7 2.7-10.9-10.8 5.5-2.8-5.5-2.7 2.7-2.7v-2.7l21.8-5.4v-8.2h13.5z" style="fill:#75010c;fill-rule:nonzero"/><path d="m660.9 468.1-5.4-27.2v-8.1l-2.7-5.4 5.4-5.5h13.6l-2.8 10.9v5.4l2.8 2.7v24.5z" style="fill:#75010c;fill-rule:nonzero"/><path d="M579.5 392.1v-5.5l8.1-16.3 13.6-5.4 5.4-2.7 5.4-5.4 8.2 13.5-5.5 2.8 5.5 10.8-5.5 5.4 5.5 5.5-21.7 13.5-13.6 8.2-13.6-13.6z" style="fill:#c10517;fill-rule:nonzero"/><path d="m625.6 440.9 8.2 16.3 24.4-2.7 2.7 13.6-10.9 2.7v2.7l-2.7 2.7 5.5 2.7-5.5 2.8-2.7 2.7-5.4-2.7v-2.8h-10.9v2.8l-5.4 5.4-5.4-8.2 2.7-5.4-8.2-8.1-5.4-16.3 10.9-5.5z" style="fill:#3c0000;fill-rule:nonzero"/><path d="m606.6 449.1 5.4 16.3h-5.4l-16.3 8.1-2.7-2.7-5.4 2.7-8.2-5.4v-2.7l5.5-2.7-8.2-2.8h-10.9l-5.4 2.8v-21.8l2.7-5.4 10.9 10.9 5.4-5.5 10.9-8.1 5.4 8.1 10.9 10.9z" style="fill:#4b0000;fill-rule:nonzero"/><path d="m628.3 430.1-5.4 2.7 2.7 8.1-8.1 2.7-16.3 8.2-10.9-10.9-5.4-8.1-10.9 8.1-5.4 5.5-10.9-10.9 5.5-13.6 8.1-19 13.6 13.6v2.7l5.4 2.7h13.6l2.7 2.7h2.7l2.7 5.5 5.5-2.7z" style="fill:#c10517;fill-rule:nonzero"/><path d="m709.8 402.9-5.5 2.7-2.7-2.7h-5.4l-2.7 2.7 5.4 2.7 2.7 2.8-5.4 5.4v8.1h-16.3l-8.1-2.7H669l2.8-2.7 2.7-5.4 5.4-5.5h5.4l2.8-5.4-5.5-5.4 2.7-5.4 5.5 2.7h2.7l5.4 5.4h2.7l-8.1-5.4 2.7-2.7h8.1v2.7l2.8 2.7h-5.5 8.2l5.4 2.7h-5.4z" style="fill:#4b0000;fill-rule:nonzero"/><path d="m620.2 538.7-2.7-2.7-16.3-13.6-13.6-10.9-8.1-8.1h5.4l10.8-10.9h2.8l5.4-5.4 8.1 5.4v-5.4h2.7l2.8 2.7 5.4-2.7 5.4-5.4v-2.8h10.9v2.8l5.4 2.7 2.7-2.7 10.9 10.8-2.7 2.7-21.7 24.5-10.9 16.3z" style="fill:#75010c;fill-rule:nonzero"/><path d="M612 356.8h8.2l5.4-2.8v-2.7l2.7-5.4h5.5l2.7 5.4 2.7 2.7v2.8h5.4l2.7 2.7h2.7l10.9 10.8h2.7l-2.7 2.8h-8.1v2.7l-2.8 2.7h-2.7l-2.7 2.7 2.7 2.7-2.7 2.7-5.4 2.7 5.4 5.5-2.7 2.7 5.4 5.4-5.4 2.7-5.4-2.7-8.2-2.7h-2.7l-10.9-10.9 5.5-5.4-5.5-10.8 5.5-2.8z" style="fill:none;fill-rule:nonzero"/><path d="M690.8 424.6v29.9l-5.5 2.7h-13.5v-16.3l-2.8-2.7v-5.4l2.8-10.9 8.1 2.7z" style="fill:#75010c;fill-rule:nonzero"/><path d="m441-199.8 2.7 5.4 8.1 2.7 2.8 2.7 10.8 2.7h5.4l5.5 2.8h29.8l5.5-2.8h5.4l5.4-2.7h2.7l5.5-2.7 5.4-5.4h8.2l8.1 2.7 8.1-2.7h5.5l8.1-2.7 5.5-2.8 8.1-2.7 5.4-2.7h5.5l8.1-2.7 8.1-5.4h5.5l16.3-5.5h19l8.1 2.8h5.4l10.9 2.7 16.3 2.7h5.4l10.9 2.7h13.6l5.4 2.7h2.7l8.2 5.4 10.8 10.9 2.7 5.4 2.7 2.8 5.5 2.7 5.4 48.8-8.1 27.2-2.8 13.6v27.1l-10.8 21.7 2.7 21.8v16.2l-2.7 16.3-10.9 13.6-10.8 5.4h-16.3l10.8 5.5-10.8 24.4-35.3 21.7-13.6 19-10.9 16.3-10.8 10.9-13.6-2.7h-8.1l-10.9-5.5-16.3-13.5-10.8-5.5-27.2-5.4-19-10.9-27.2-10.8-10.8-2.7-8.2-2.7-13.5-2.8-19-5.4h-2.8L441 55.4l-13.6-2.7-13.6-5.5-19-5.4V30.9l2.7-8.1V9.2l8.2-5.4 2.7-2.7 5.4-10.9v-13.6l2.7-8.1v-5.4l2.8-2.7-8.2-2.8h-13.6l-2.7-2.7h-21.7l-8.1-2.7v-13.6h-5.5l-8.1-2.7-2.7-2.7v-5.4l-2.8-5.5v-5.4l-2.7-2.7h2.7l2.8-2.7v-2.7l-5.5-2.7-5.4-5.5-5.4-8.1-2.7-2.7-8.2-10.9-10.8-10.9v-8.1l5.4-2.7h5.4l29.9-13.6 21.7-10.9 13.6-5.4 46.1-21.7 2.7-2.7zm135.7 453.4L574 259l-16.3 10.9-13.5 5.4-19.1 10.9-5.4 2.7H517l-2.7 2.7-5.4 2.7v2.7l-8.2 2.7-8.1 5.5 2.7-5.5-2.7-2.7-5.5-2.7 5.5-2.7v-2.7h2.7v-13.6h2.7l2.7-2.7V259l13.6-2.7 10.8-8.1 2.8-2.8 8.1-5.4v-2.7l2.7-2.7 10.9 5.4 2.7 2.7h2.7l2.7 5.5 2.7 2.7 10.9 5.4zm239-252.5v13.6l-2.7 5.4v8.1h-5.5l-5.4-2.7h-2.7l2.7-2.7h2.7l-2.7-8.1-5.4-2.8h-8.2l-5.4-2.7h-2.7l-8.2-8.1v-2.7l2.7-5.5 5.5-8.1 2.7-2.7 5.4-2.7 5.4 2.7h2.8l5.4 5.4v2.7h2.7v2.7l8.2 2.7zm-32.6-32.6 2.7 2.7v2.7l-13.6 13.6-5.4 2.7v-5.4h2.7v-8.2l-2.7-2.7 2.7-2.7 10.9-5.4h2.7zm-19 65.2h-2.7l-5.5-10.9-2.7-2.7v-5.4l2.7-2.8 5.5-2.7h2.7l2.7 2.7v2.8l2.7 2.7-2.7 5.4-2.7 2.7zm27.1-8.2-2.7 5.4-2.7-2.7h-5.4l-2.7 2.7h-2.8l-5.4-2.7v-19h2.7l2.7 2.7 5.5 8.2 2.7 2.7 5.4 2.7zm-16.3-70.6-2.7 2.7v2.8l-2.7 5.4v-2.7l-2.7-8.2v-2.7l-5.4-10.9h5.4v2.8h5.4l2.7 5.4zm5.5 57h10.8l2.7 2.8h-2.7v8.1h-5.4l-5.4-5.4-2.7-5.5-5.5-2.7-2.7-2.7 2.7-2.7v2.7zm0-46.1-10.9 5.4v-5.4l2.7-2.7v-5.5l2.7-2.7h2.8l2.7 2.7zm-5.5 81.4h-5.4v-8.1h2.7l2.7 2.7zM764.1-58.7v-2.7l2.7-2.7v-8.1l2.7 2.7v8.1h-2.7zm8.1 89.6 2.7 2.8-5.4 2.7v-5.5zm32.6 0h-2.7v-2.7zm-27.1 2.8h2.7v2.7h-5.5zm-2.8-92.4-2.7-2.7v-2.7z" style="fill:#e3051b"/><path d="m392.1 248.2-13.6-21.8-10.8-13.5-2.7-5.5 19-10.8-5.5-2.7h5.5l2.7-2.8 8.1-13.5-13.6-10.9V164l16.3-8.2 13.6-8.1 5.4 5.4 8.2-8.1v-2.7l2.7-8.2 2.7-5.4 2.7-16.3 8.2-16.3 5.4-16.3 2.7-10.8 5.5-5.5v-2.7l19 5.4 13.5 2.8 8.2 2.7 10.8 2.7 27.2 10.8 19 10.9 27.2 5.4 10.8 5.5 16.3 13.5 10.9 5.5h8.1l13.6 2.7 10.8-10.9 10.9-16.3 2.7 38.1-10.8 54.3-10.9 8.1-2.7 13.6-13.6 21.7-8.1 8.1-13.6 10.9-24.4-2.7v2.7l-2.8-2.7-5.4 2.7-10.9-5.4-2.7-2.7-2.7-5.5h-2.7l-2.7-2.7-10.9-5.4-2.7 2.7v2.7l-8.1 5.4-2.8 2.8-10.8 8.1-13.6 2.7v13.6l-2.7 2.7h-2.7v13.6h-2.7v2.7l-5.5 2.7 5.5 2.7 2.7 2.7-2.7 5.5v2.7l2.7 2.7v2.7l-2.7 2.7v5.5l-2.7 8.1v10.9l-2.8 2.7v8.1h-2.7l-29.8-29.8-8.2-5.5-27.1-27.1-2.8-5.4-2.7-2.8-10.8-16.3-2.7-2.7z" style="fill:#c10517;fill-rule:nonzero"/><path d="M669 421.9h-10.8l-2.7-2.7-13.6-10.9v-2.7l5.4-2.7-5.4-5.4 2.7-2.7-5.4-5.5 5.4-2.7 2.7-2.7-2.7-2.7 2.7-2.7h2.7l2.8-2.7v-2.7h8.1l8.1 2.7 2.8 2.7h2.7l8.1 8.1h5.5v2.7l5.4 5.5h-2.7l-5.5-2.7-2.7 5.4 5.5 5.4-2.8 5.4h-5.4l-5.4 5.5-2.7 5.4z" style="fill:#280000;fill-rule:nonzero"/><path d="m764.1 636.4-24.5 10.9 27.2 40.7 10.9 13.6-16.3 10.8-8.2 2.8 2.7 8.1-29.8 16.3-2.7-5.4-19.1 8.1-29.8 19-19-29.9 8.1-5.4-5.4-5.4-5.4-8.2-24.5-43.4 16.3-8.1 24.4-13.6-2.7-8.2 29.9-16.3 21.7-10.8-5.4-5.4 27.1-13.6 2.8 5.4 5.4 8.2 2.7 5.4 2.7 2.7v5.4l2.7 5.5z" style="fill:#a10413;fill-rule:nonzero"/><path d="m658.2 720.6 5.4 5.4-8.1 5.4 19 29.9 29.8-19 19.1-8.1 2.7 5.4 29.8-16.3 16.3 21.7 13.6 13.6 5.4 10.9h-5.4l-13.6-2.8-21.7 10.9-19 10.9-40.7 19v-2.7l-19 8.1 5.4 8.1-8.2 2.8-2.7 5.4-8.1 2.7-2.7-2.7-10.9 8.1-8.1-5.4-19 19-19 16.3v-13.6l2.7-27.1 2.7-13.6 2.7-5.4v-2.7l-2.7-2.8-24.4-21.7h2.7l-2.7-2.7 29.8-21.7v2.7l10.9-8.1h-2.7l19-8.2 13.5-8.1z" style="fill:none;fill-rule:nonzero"/><path d="m60.9 595.7-2.8 2.7 13.6 10.9 13.6 13.5 27.1 24.5 24.5 21.7 13.6-16.3 10.8 10.9 2.7 5.4 13.6 10.9 13.6 13.5 16.3 13.6 5.4 8.2 21.7 16.2 2.7 2.8-13.5 13.5 24.4 21.8 21.7 19 16.3 13.5v2.8h2.7l10.9 10.8-13.6 13.6-24.4 19-5.5 2.7-19 19h2.8l-43.5 43.5-16.3 10.8-5.4 8.2-13.6 13.5-10.8 8.2-8.2 8.1-5.4-5.4-29.9-24.4-21.7-19-19-19L88 872.6l-27.1-21.7L50 837.3l-10.9-8.1-24.4-21.7-5.4-5.5-10.9-8.1 2.7-2.7-21.7-16.3-8.1-8.2-13.6-10.8-24.5-13.6L-83 726l-27.2-24.4-16.3-13.6 8.2-8.1 5.4-2.8 10.9-13.5h2.7l48.8-48.9v-5.4l5.5-8.2h2.7v-2.7l2.7-5.4 2.7-2.7h2.7l2.7-5.5 5.5-2.7 19-19 2.7-8.1 10.9-10.9 19 19 5.4 2.7z" style="fill:#f7f3ea;fill-rule:nonzero"/><path d="m226.5 508.8 5.4 2.7-5.4 8.2v5.4l2.7 2.7 8.1 5.4 21.8 21.8 10.8 8.1 16.3 10.9 29.9 21.7 16.3 13.6 13.5 13.5 13.6 10.9 16.3 16.3h-2.7l-5.4 5.4h-10.9l-2.7 2.7v-2.7h-5.4v2.7l-5.5 5.5h-10.8l-5.5 2.7h-19l5.5 5.4 19 16.3-13.6 10.9 5.4 5.4 13.6 10.9 16.3 16.2 5.4 2.8 5.5 8.1 8.1 8.2 10.9 8.1h-5.5l-2.7 2.7-8.1 2.7-10.9 5.5h-2.7l-5.4 2.7-5.5 5.4v2.7l-5.4 2.7v2.8l-8.1 2.7h-2.8l-2.7 2.7v2.7l-8.1 8.1v2.8l-2.7 2.7h-10.9l-5.4-2.7h-2.7l-2.8-2.8h-2.7l-2.7 2.8V802l-16.3-13.5-21.7-19-24.4-21.8 13.5-13.5-2.7-2.8-21.7-16.2-5.4-8.2-16.3-13.6-13.6-13.5L164 669l-2.7-5.4-10.8-10.9-13.6 16.3-24.5-21.7-27.1-24.5-13.6-13.5-13.6-10.9 2.8-2.7V593l5.4-2.7 2.7-2.8 5.4 2.8h5.5l5.4 2.7 2.7 2.7h2.7l5.5-5.4 2.7-5.5h2.7l5.4-2.7h2.7v-2.7l2.7-2.7h2.8l5.4-5.4 5.4-2.8 2.7-2.7 2.8-5.4 5.4-5.4v-8.2l2.7-2.7 5.4-2.7v-2.7h5.5l2.7-5.5 2.7-2.7h2.7l2.7-2.7h8.2v-2.7h5.4l2.7 2.7 2.7-2.7h16.3l5.4-2.7h2.8l5.4-2.7 8.1-2.7h2.8l2.7-2.8z" style="fill:#a10413;fill-rule:nonzero"/><path d="m427.4 736.9 5.4-5.5v-13.5l2.7-2.7v-2.8l2.8-2.7V707l2.7-2.7v-2.7h2.7l2.7-5.4h2.7V688l5.5-2.7 2.7-5.4v-2.8l2.7-5.4 2.7-2.7v-10.9h2.7l8.2-8.1h5.4l2.7-2.7v-2.7l5.4-5.5v-2.7h2.8v-2.7l2.7-2.7v-5.4l2.7-5.5v-2.7l2.7-2.7h5.4l2.7-2.7h2.8l-2.8-2.7v-5.5h2.8l2.7-2.7h2.7l-2.7-2.7v-2.7l2.7-2.7h10.8l2.8-2.7v-2.8h2.7l5.4 5.5h8.2v-5.5h-2.8v-5.4l2.8-2.7 5.4 2.7v-2.7h2.7l5.4-2.7h2.7l-2.7 10.8v10.9l-2.7 19v2.7l8.2 16.3 2.7 13.6v5.4l2.7 8.2V688l2.7 10.9v16.3l-2.7 16.2-2.7 5.5-2.7 13.6 5.4 8.1 2.7 8.1 8.2 10.9 2.7 2.7h-2.7l-19.1 19-21.7 16.3-2.7-2.7-19 16.3 5.4 5.4-8.1 27.2-21.7-16.3-38-32.6 19-19-10.9-19-2.7-2.7h-2.7v-2.7l-2.7-2.8h-8.2l-2.7-5.4-8.2-10.8z" style="fill:#75010c;fill-rule:nonzero"/><path d="M231.9 511.5h19l5.4 2.7 8.2-2.7v-2.7h2.7l2.7 2.7h2.7l2.8-2.7h2.7l2.7-2.7v-2.7h5.4l2.7-2.7h8.2l5.4-5.5 8.2-2.7 5.4-2.7h5.4l2.7-2.7h8.2l5.4-2.7v-2.7l2.7-2.8 5.4-2.7 8.2-8.1h5.4v-5.4l2.7-2.8 51.6 51.6 5.5 2.7 10.8 10.9 13.6 10.9-2.7 5.4 8.1 5.4-13.6 10.9-5.4-2.7-10.8 8.1-5.5 5.4-5.4 2.8 16.3 16.2-8.2 8.2-8.1 5.4-5.4-8.1-24.5 21.7-21.7-21.7-21.7 19-2.7-2.7-16.3-13.6-29.9-21.7-16.3-10.9-10.8-8.1-21.8-21.8-8.1-5.4-2.7-2.7v-5.4z" style="fill:#280000;fill-rule:nonzero"/><path d="M560.4 576.7h2.8l2.7-2.7h2.7v-2.7l5.4-5.5v-2.7l2.7-5.4V555l2.8 2.7 16.2 21.7 10.9 19 10.9 16.3 27.1 46.2-16.3 8.1 24.5 43.4 5.4 8.2-8.2 13.6-13.5 8.1-19 8.2h2.7l-10.9 8.1v-2.7l-29.8 21.7-8.2-10.9-2.7-8.1-5.4-8.1 2.7-13.6 2.7-5.5 2.7-16.2v-16.3l-2.7-10.9v-24.4l-2.7-8.2V650l-2.7-13.6-8.2-16.3v-2.7l2.7-19v-10.9z" style="fill:#75010c;fill-rule:nonzero"/><path d="M-254.1 22.8h-2.7l2.7-5.4-2.7-8.2h2.7V1.1l2.7-2.7v-10.9h2.7v-2.7h2.8v-5.4h2.7l5.4-2.8 2.7-5.4h2.7l8.2-8.1 2.7-5.5h5.4v-2.7l5.4-5.4h2.8v-2.7h2.7l2.7-2.7h2.7l2.7-2.8h5.5l24.4 2.8 48.9 8.1v8.2l43.4 8.1 32.6 5.4L12-15.2 9.3-1.6l8.1 10.8 5.4 5.5h5.5l8.1-2.8 19 19-2.7 5.5L66.3 50l10.9 8.1-2.8 2.7 21.8 21.7V88l24.4 24.4 8.1 5.4 2.8-2.7 16.2 24.5 2.8 2.7 10.8 16.3 2.7-2.8 8.2 10.9 2.7 2.7 10.9 13.6-2.8 2.7h2.8l-2.8 2.7v5.5l-2.7 2.7h2.7l-2.7 2.7 2.7 5.4v5.4l2.8 2.8-2.8 2.7v2.7l-2.7 2.7-40.7-54.3-13.6-19-10.8 8.1 8.1 13.6-8.1 2.7v2.7l-2.8 2.8v2.7l-8.1 5.4-16.3 8.2-8.1 5.4h-2.7l5.4 5.4-10.9 5.4v2.8l-8.1 2.7 2.7 5.4h-5.4l2.7 2.7-8.2 5.5-5.4 2.7-2.7 2.7-13.6 5.4v-2.7L31 240v2.7h-2.7l2.7 2.7-5.4 2.8 2.7 5.4v2.7l-5.5 2.7 2.8 2.7-19 8.2-8.2-13.6-13.6-21.7-5.4-8.2v-2.7l-2.7 2.7-13.6-13.5-27.1-21.8-21.8-19 5.5-5.4-13.6-10.9h-2.7l-21.7-19-21.8-21.7h2.8l-21.8-19-2.7 2.7-24.4-16.3-8.2-2.7v-2.7h2.8l10.8-24.4-5.4-2.7-62.5-24.5z" style="fill:none;fill-rule:nonzero"/><path d="m318.8 373.1 8.1-5.5h2.8l2.7-2.7 5.4 2.7 2.7-2.7 27.2-24.4 5.4-5.5v-2.7l2.7 2.7 16.3 13.6 8.2-5.4 5.4 2.7 5.4-2.7 24.4-19 10.9-8.2 8.2 5.5 29.8 29.8v2.7l-2.7 2.8-2.7 5.4-5.4 2.7h-5.5l-8.1 2.7v2.7l-2.7 2.8-5.5 2.7v2.7h-5.4v2.7l-5.4 2.7h-2.7l-5.5 2.7h-2.7v2.7h-2.7v2.8l-2.7 2.7-2.7-2.7-8.2 8.1h-2.7v2.7l-2.7 2.7v2.7H403l-2.7 2.8h-2.8v2.7l-2.7 2.7-5.4 2.7-8.2 5.4-2.7 2.8-5.4-2.8-16.3-13.5-8.1-10.9-13.6-10.9-2.7-2.7-13.6-10.8z" style="fill:#a10413;fill-rule:nonzero"/><path d="m207.5 107 13.6 21.7 2.7 5.4 13.5 21.7 21.8 35.3 5.4-2.7 5.4 10.9 13.6 21.7 5.4-2.7h5.5l8.1-2.7 5.4-2.7v-2.8l2.8-5.4h2.7l10.8 5.4 21.7 35.3 16.3 21.8-8.1 2.7v2.7l-8.2 5.4-2.7-5.4-8.1 5.4h-2.7l-2.7-2.7-2.8 2.7-8.1 5.5-5.4 2.7-5.5-2.7-13.5-8.2v-2.7l-2.8-2.7-8.1-5.5-5.4-5.4v5.4l8.1 8.2v2.7l-2.7 5.4 2.7 2.8v16.2l-2.7 2.8v2.7l-5.4 2.7v5.4l-2.7 8.2h-2.8v5.4l-2.7 5.4-8.1 8.2-2.7 5.4h-2.8v8.1l-2.7 5.5-5.4 5.4-8.1 10.9-16.3 10.8-13.6 8.2-13.6-24.5-24.4-40.7-35.3 16.3-8.2-13.6-19-27.1-8.1-13.6-2.7 2.7v2.7h-8.2l-13.5-24.4-16.3-24.4-2.8-2.8-8.1-13.5 5.4-2.7 8.2-5.5-2.7-2.7h5.4l-2.7-5.4 8.1-2.7v-2.8l10.9-5.4-5.4-5.4h2.7l8.1-5.4 16.3-8.2 8.1-5.4v-2.7l2.8-2.8v-2.7l8.1-2.7-8.1-13.6 10.8-8.1 13.6 19 40.7 54.3 2.7-2.7v-2.7l2.8-2.7-2.8-2.8v-5.4l-2.7-5.4 2.7-2.7h-2.7l2.7-2.7v-5.5l2.8-2.7H183l5.5-5.4h-2.7v-2.7l2.7-2.8h-2.7l2.7-5.4v-2.7h5.4V164h2.7v-5.4l-8.1-8.2 2.7-2.7V145l-2.7-5.4 2.7-2.8v-2.7l-2.7-2.7 2.7-2.7v-5.4h2.7v-5.5h2.7l2.7-2.7-2.7-2.7h2.7v-2.7l5.5-5.4z" style="fill:#75010c;fill-rule:nonzero"/><path d="m3.8 546.8-8.1 8.2-2.7 8.1-19 19-5.5 2.7-2.7 5.5h-2.7l-2.7 2.7-2.7 5.4v2.7H-45l-5.5 8.2v5.4l-21.7 21.7-2.7-5.4-32.6-48.9-2.7-5.4-8.1-13.6-13.6-21.7-5.4-8.2-19-27.1 8.1-2.7 8.1-5.5-13.5-16.2-16.3-27.2-8.2-10.9 5.5-5.4h8.1l5.4-2.7-16.3-21.7-2.7-5.5-21.7-32.5-8.1-16.3-8.2-19-13.6-24.5 10.9-8.1 46.2-24.4 27.1-16.3h5.4l21.8-13.6 8.1-2.7-10.9-19-8.1-16.3v-2.7h2.7l5.4-2.8 2.8-2.7v-2.7h2.7l2.7-2.7h2.7v-2.7l2.7-2.7 5.5-2.7 2.7-2.8v-2.7h2.7l2.7-2.7v-5.4h2.7l2.7-5.5 2.7-2.7 21.8 19 27.1 21.8 13.6 13.5 2.7-2.7v2.7l5.4 8.2 13.6 21.7 8.2 13.6 19-8.2-2.8-2.7 5.5-2.7v-2.7l-2.7-5.4 5.4-2.8-2.7-2.7H31V240l2.7-2.7v2.7l13.6-5.4 2.7-2.7 8.1 13.5 2.8 2.8 16.3 24.4L90.7 297h8.2v-2.7l2.7-2.7 8.1 13.6 19 27.1 8.2 13.6 8.1 10.9-5.4 2.7-13.6 8.1-5.4 2.7-8.2 5.5 2.8 2.7-8.2 5.4 5.4 10.9-8.1 2.7-5.4 2.7h-2.7l-13.6 5.4-8.2 5.5-2.7-2.8h-5.4l-2.7-2.7h-2.7l-8.2 2.7-24.4 13.6 13.6 13.6-32.6 19-2.7-2.7-8.2 5.4-16.3 8.2 2.7 2.7-13.5 8.1-8.2 2.7 2.7 5.5 10.9 19z" style="fill:#fb947e;fill-rule:nonzero"/><path d="M397.5 413.8v-2.7h2.8l2.7-2.8h5.4v-2.7l2.7-2.7v-2.7h2.7l8.2-8.1 2.7 2.7 2.7-2.7v-2.8h2.7v-2.7h2.7l5.5-2.7h2.7l5.4-2.7 27.2 27.1v5.5l-2.8 5.4v16.3h-2.7l2.7 2.7-2.7 2.7 2.7 2.7v5.5h-2.7v8.1h-32.6v-2.7L422 443.6l-16.3-16.2 2.7-2.8z" style="fill:#3c0000;fill-rule:nonzero"/><path d="m530.6 459.9-10.9 5.5H517v2.7l-13.6 2.7 2.7 5.4-2.7 2.7-10.8 8.2-32.6 32.6-13.6 10.8-2.7 5.5-13.6-10.9-10.8-10.9 2.7-8.1 5.4-19 5.4-24.4 2.7-5.5h32.6v-8.1h2.7v-5.5l-2.7-2.7 2.7-2.7-2.7-2.7h2.7v-16.3l2.8-5.4v-2.7l21.7 21.7 5.4-2.7 2.7 8.1 10.9 16.3 5.4-2.7z" style="fill:#c10517;fill-rule:nonzero"/><path d="m362.2 267.2 5.5-5.5 8.1-2.7 16.3-10.8 8.2 13.5 2.7 2.7 10.8 16.3 2.7 2.8 2.8 5.4 27.1 27.1-10.9 8.2-24.4 19-5.4 2.7-5.4-2.7-8.2 5.4-16.3-13.6-5.4-5.4-2.7-8.1-8.2-2.8-10.8-5.4-13.6-5.4-21.7-21.7 5.4-2.7 8.1-5.5 2.8-2.7 2.7 2.7h2.7l8.1-5.4 2.7 5.4 8.2-5.4v-2.7z" style="fill:#a10413;fill-rule:nonzero"/><path d="m536 348.6 16.3 13.6 5.4-2.7 2.7-2.7 2.8 5.4h-2.8l2.8 2.7 2.7 5.4v2.8l8.1 13.5 5.5 5.5-8.2 10.8-8.1 19-13.6-2.7h-5.4v-2.7l-16.3-2.7h-2.8l-16.2-16.3-21.8-19-13.5-13.6 5.4-2.7 2.7-5.4 2.7-2.8v-2.7h2.7v-8.1l2.8-2.7v-10.9l2.7-8.1V316l2.7-2.7v-2.7l-2.7-2.7v-2.7l5.4 2.7v2.7l5.4 2.7 19 21.7z" style="fill:#e3051b;fill-rule:nonzero"/><path d="m612 305.2-5.4 2.7-46.2 21.7v2.7L555 335h-2.7L536 348.6 522.4 335l-19-21.7-5.4-2.7v-2.7l-5.4-2.7 8.1-5.5 8.2-2.7v-2.7l5.4-2.7 2.7-2.7h2.7l5.4-2.7 19.1-10.9 13.5-5.4L574 259l2.7-5.4 2.8 2.7v2.7h5.4l5.4 2.7-2.7 2.7 5.4 10.9 5.5 2.7 2.7 2.7v2.8l8.1 8.1v2.7l2.7 5.4z" style="fill:#c10517;fill-rule:nonzero"/><path d="M362.2 459.9v-5.4h2.8l2.7-2.7v-10.9l2.7-2.7v-2.7l2.7-5.4 5.4-2.7 2.7-2.8 8.2-5.4 5.4-2.7 2.7-2.7 10.9 10.8-2.7 2.8 16.3 16.2 13.5 10.9v2.7l-2.7 5.5-5.4 24.4-5.4 19-2.7 8.1-5.5-2.7zM210.2 394.8l-5.4 2.7 5.4 5.4 10.9 21.7 8.1 13.6-19 10.9h2.7v5.4l-2.7 8.2v2.7l2.7 2.7v5.4l-2.7 2.7v10.9l-2.7 2.7v2.7l2.7 5.4 10.9 5.5 2.7 5.4h2.7l-2.7 5.4-2.7 2.8h-2.8l-8.1 2.7-5.4 2.7H202l-5.4 2.7h-16.3l-2.7 2.7-2.7-2.7h-5.4v2.7h-8.2l-2.7 2.7h-2.7l-2.7 2.7-2.7 5.5H145v2.7l-5.4 2.7-2.7 2.7v8.2l-5.4 5.4-2.8 5.4-2.7 2.7-5.4 2.8-5.4 5.4h-2.8l-2.7 2.7v2.7H107l-5.4 2.7h-2.7l-2.7 5.5-5.5 5.4H88l-2.7-2.7-5.4-2.7h-5.5l-5.4-2.8-2.7 2.8-5.4 2.7v2.7L31 565.8l-5.4-2.7-19-19-2.8 2.7-27.1-43.4-10.9-19-2.7-5.5 8.2-2.7 13.5-8.1-2.7-2.7 16.3-8.2 8.2-5.4 2.7 2.7 32.6-19-13.6-13.6 24.4-13.6 8.2-2.7h2.7l2.7 2.7h5.4l2.7 2.8 8.2-5.5 13.6-5.4h2.7l5.4-2.7 8.1-2.7-5.4-10.9 8.2-5.4-2.8-2.7 8.2-5.5 5.4-2.7 13.6-8.1 5.4-2.7-8.1-10.9 35.3-16.3 24.4 40.7z" style="fill:#4b0000;fill-rule:nonzero"/><path d="m555 481.7-5.4-2.8-19-19-10.9-8.1-5.4 2.7-10.9-16.3-2.7-8.1-5.4 2.7-21.7-21.7v-2.8l-27.2-27.1v-2.7h5.4v-2.7l5.5-2.7 2.7-2.8v-2.7l8.1-2.7h5.5l13.5 13.6 21.8 19 16.2 16.3h2.8l16.3 2.7v2.7h5.4l13.6 2.7-5.5 13.6-2.7 5.4zM804.8 614.7l5.4 8.1 8.2 10.9 5.4 2.7 10.9 10.9 21.7 5.4 10.9 5.4h2.7l5.4 10.9 2.7 21.7 8.2 24.5-16.3 16.2-13.6 10.9-21.7 19-16.3 16.3 8.1 8.2 24.5 21.7-35.3 35.3v2.7l-10.9 8.1-10.9 5.5-5.4 5.4-2.7 5.4-8.1-13.6v-2.7l-13.6-24.4 13.6-8.2-27.2-43.4 21.7-10.9 13.6 2.8h5.4l-5.4-10.9-13.6-13.6-16.3-21.7-2.7-8.1 8.2-2.8 16.3-10.8-10.9-13.6-27.2-40.7 24.5-10.9 5.4 8.2 2.7-5.5v-5.4l2.7-2.7v-5.4l16.3-10.9 10.9-5.4z" style="fill:#c10517;fill-rule:nonzero"/><path d="M378.5 758.6h13.6l5.4-5.4 5.5-2.7h2.7l2.7-2.8 5.4-2.7h2.7l2.8-2.7 5.4-2.7 2.7-2.7 8.1 13.6 8.2 10.8 2.7 5.4h8.2l2.7 2.8v2.7h2.7l2.7 2.7 10.9 19-19 19 38 32.6 21.7 16.3v5.4L498 883.5l-21.7 19-8.2 8.1 16.3 19.1h2.7l-2.7 89.6 10.9 8.1 13.6 13.6-5.5 2.7 19 19 5.5-2.7 35.3 35.3 21.7 13.6 2.7 5.4-46.2 40.7-32.5 29.9-24.5 24.4 24.5 24.4 19 16.3-19 16.3 2.7 2.7-10.9 8.2-19 19v2.7l-13.6 10.9-73.3-73.3h-2.7l-5.4 2.7-2.7 2.7-13.6-10.9-19-16.3 10.8-10.8-2.7-2.7 21.7-16.3v-2.7l-19-19-5.4-2.8-40.7-35.3-21.7 21.8h-2.8l-38-32.6 2.7-5.4-35.2-29.9-32.6-27.2-10.9-10.8 24.4-24.5h-2.7L166.8 984l-16.3-13.6-8.2-8.2 8.2-8.1 10.8-8.2 13.6-13.5 5.4-8.2 16.3-10.8 43.5-43.5h-2.8l19-19 5.5-2.7 24.4-19 13.6-13.6-10.9-10.8h-2.7l2.7-2.8h2.7l2.8 2.8h2.7l5.4 2.7h10.9l2.7-2.7V802l8.1-8.1v-2.7l2.7-2.7h2.8l8.1-2.7V783l5.4-2.7v-2.7l5.5-5.4 5.4-2.7h2.7l10.9-5.5 8.1-2.7z" style="fill:#a10413;fill-rule:nonzero"/><path d="m614.7 1089.8-27.1 24.5-2.7-5.4-21.7-13.6-35.3-35.3-5.5 2.7-19-19 5.5-2.7-13.6-13.6-10.9-8.1 2.7-89.6h-2.7l-16.3-19.1 8.2-8.1 21.7-19 16.3-16.3v-5.4l8.1-27.2-5.4-5.4 19-16.3 2.7 2.7 21.7-16.3 19.1-19 24.4 21.7 2.7 2.8v2.7l-2.7 5.4-2.7 13.6-2.7 27.1v13.6l19-16.3 19-19 8.1 5.4 10.9-8.1 2.7 2.7 8.1-2.7 2.7-5.4 8.2-2.8-5.4-8.1 19-8.1v2.7l40.7-19 19-10.9 27.2 43.4-13.6 8.2 13.6 24.4v2.7l8.1 13.6-10.9 8.2 38.1 32.5v2.8l10.8 8.1-38 38-5.4 2.7-13.6 13.6-16.3 13.6-32.6 29.9-13.6-13.6-57 54.3-5.4-2.7-32.6 29.8z" style="fill:#c10517;fill-rule:nonzero"/><path d="m878.1 574-35.3 19-19 13.6-8.1 2.7-10.9 5.4-2.7-5.4-10.9 5.4-16.3 10.9v5.4l-2.7 2.7v5.4l-2.7 5.5-5.4-8.2-8.2-10.8-2.7-5.5v-5.4l-2.7-2.7-2.7-5.4-5.4-8.2-2.8-5.4-8.1-10.9-2.7-5.4 13.6-13.6 13.5-10.8 38-38.1 5.5-2.7 8.1 8.2 16.3 8.1 2.7 2.7 16.3 8.2h2.7v5.4h2.7l5.5 2.7 5.4 5.5 5.4 2.7v2.7h2.8v2.7l2.7 2.7v5.4l5.4 5.5z" style="fill:#a10413;fill-rule:nonzero"/><path d="M579.5 503.4 555 481.7v-19l5.4-2.8h10.9l8.2 2.8-5.5 2.7v2.7l8.2 5.4 5.4-2.7 2.7 2.7 16.3-8.1h5.4l8.2 8.1-2.7 5.4 5.4 8.2-5.4 2.7-2.8-2.7H612v5.4l-8.1-5.4-5.4 5.4h-2.8l-10.8 10.9z" style="fill:#c10517;fill-rule:nonzero"/><path d="m655.5 495.2 5.4-5.4h19l-5.4 5.4 10.8 8.2-2.7 2.7 16.3 16.3h2.7l40.8 40.7-13.6 13.6h-8.2l-10.8 5.4-5.5-2.7h-2.7l-10.8-5.4-21.8-5.5h-2.7l-32.5-48.8z" style="fill:#e3051b;fill-rule:nonzero"/><path d="M579.5 557.7h2.7l2.7 2.7h2.7l5.4 5.4h2.7v-2.7l27.2-27.1 10.9-16.3 32.5 48.8h2.7l21.8 5.5 10.8 5.4h2.7l5.5 2.7 10.8-5.4h8.2l2.7 5.4 8.1 10.9-27.1 13.6 5.4 5.4-21.7 10.8-29.9 16.3 2.7 8.2-24.4 13.6-27.1-46.2-10.9-16.3-10.9-19z" style="fill:#75010c;fill-rule:nonzero"/><path d="m679.9 489.8 2.7 2.7h8.2l2.7-2.7h2.7l8.1-2.7h2.8l5.4-2.7v-2.7l5.4-2.8h2.7l5.5-5.4-2.7-2.7v-2.7l5.4-2.7 2.7-2.7 8.1-2.8 2.8 2.8h2.7l5.4 5.4-2.7 5.4 19 19 8.1 5.4 5.5 2.8 8.1 5.4 10.9 5.4-5.5 2.7-38 38.1-13.5 10.8-40.8-40.7h-2.7l-16.3-16.3 2.7-2.7-10.8-8.2zM652.8 427.4l-8.2 2.7-5.4 2.7-21.7-5.4-5.5 2.7-2.7-5.5h-2.7l-2.7-2.7h-13.6l-5.4-2.7v-2.7l13.6-8.2 21.7-13.5 5.4 5.4h2.7l8.2 2.7 5.4 2.7v2.7l13.6 10.9 2.7 2.7h2.7-2.7z" style="fill:#e3051b;fill-rule:nonzero"/></g><clipPath id="c"><circle cx="480" cy="490.6" r="430"/></clipPath><g clip-path="url(#c)"><path d="m394.8 41.8 19 5.4 13.6 5.5 13.6 2.7 10.8 5.4h2.8M454.6 60.8v2.7l-5.5 5.5-2.7 10.8-5.4 16.3-8.2 16.3-2.7 16.3-2.7 5.4-2.7 8.2v2.7l-8.2 8.1-5.4-5.4-13.6 8.1-16.3 8.2v2.7l13.6 10.9-8.1 13.5-2.7 2.8h-5.5l5.5 2.7-19 10.8 2.7 5.5 10.8 13.5 13.6 21.8M392.1 248.2 375.8 259l-8.1 2.7-5.5 5.5M362.2 267.2l-16.3-21.8-21.7-35.3-10.8-5.4h-2.7l-2.8 5.4v2.8l-5.4 2.7-8.1 2.7h-5.5l-5.4 2.7-13.6-21.7-5.4-10.9-5.4 2.7-21.8-35.3-13.5-21.7-2.7-5.4-13.6-21.7" style="fill:none;fill-rule:nonzero;stroke:#000;stroke-width:2.7px;stroke-miterlimit:4"/><path d="M207.5 107v-2.7l2.7-2.8v2.8l5.4-5.5 2.7 2.7v-5.4h5.5v-2.7h2.7V88l2.7-2.8h-2.7v-5.4 2.7h2.7v-5.4h-2.7l2.7-2.7h2.7V69l5.4-2.8 5.5 5.5h2.7V69l2.7-2.8-2.7-2.7v-2.7h-2.7l2.7-2.7v-2.7h8.1l5.5 2.7v2.7l5.4 2.7h2.7l10.9 5.5 8.1-2.8V69l5.4 2.7h2.8l5.4 5.4v-2.7l2.7 2.7 5.4-5.4h2.8l5.4 5.4h2.7l2.7 2.7 5.4 2.7 5.5-5.4v-2.7l-2.7-5.4v-2.8h-2.8l-2.7-5.4v-2.7l-2.7-8.1-5.4-5.5h-2.7v-2.7l-2.7-5.4v-2.7l-5.5-5.5 2.7-2.7 2.8-5.4h5.4l5.4 2.7 16.3 5.4 19 5.5 8.2 2.7h8.1l16.3 2.7 5.4 2.7M313.4 286.2l21.7 21.7 13.6 5.4 10.8 5.4 8.2 2.8 2.7 8.1 2.7 2.7M373.1 332.3v2.7l-5.4 5.5-27.2 24.4-2.7 2.7-5.4-2.7-2.7 2.7h-2.8l-8.1 5.5M318.8 373.1 302.5 354h-2.7l-24.4-32.5M275.4 321.5l2.7-8.2v-5.4l5.4-2.7v-2.7l2.7-2.8v-16.2l-2.7-2.8 2.7-5.4v-2.7l-8.1-8.2V259l5.4 5.4 8.1 5.5 2.8 2.7v2.7l13.5 8.2 5.5 2.7M628.3 345.9l-2.7 5.4v2.7l-5.4 2.8H612M612 356.8l-5.4 5.4-5.4 2.7-13.6 5.4-8.1 16.3v5.5M579.5 392.1l-5.5-5.5-8.1-13.5v-2.8l-2.7-5.4-2.8-2.7h2.8l-2.8-5.4-2.7 2.7-5.4 2.7-16.3-13.6M536 348.6l16.3-13.6h2.7l5.4-2.7v-2.7l46.2-21.7 5.4-2.7M318.8 373.1v2.7l13.6 10.8 2.7 2.7 13.6 10.9 8.1 10.9 16.3 13.5 5.4 2.8M378.5 427.4l-5.4 2.7-2.7 5.4v2.7l-2.7 2.7v10.9l-2.7 2.7h-2.8v5.4M362.2 459.9l-2.7 2.8v5.4h-5.4l-8.2 8.1-5.4 2.7-2.7 2.8v2.7l-5.4 2.7h-8.2l-2.7 2.7h-5.4l-5.4 2.7-8.2 2.7-5.4 5.5h-8.2l-2.7 2.7h-5.4v2.7l-2.7 2.7h-2.7l-2.8 2.7h-2.7l-2.7-2.7h-2.7v2.7l-8.2 2.7-5.4-2.7h-19M231.9 511.5l-5.4-2.7M226.5 508.8h-2.7l-2.7-5.4-10.9-5.5-2.7-5.4v-2.7l2.7-2.7v-10.9l2.7-2.7v-5.4l-2.7-2.7v-2.7l2.7-8.2v-5.4h-2.7l19-10.9-8.1-13.6-10.9-21.7-5.4-5.4 5.4-2.7M210.2 394.8l13.6-8.2 16.3-10.8 8.1-10.9 5.4-5.4 2.7-5.5v-8.1h2.8l2.7-5.4 8.1-8.2 2.7-5.4v-5.4h2.8M555 481.7l24.5 21.7M579.5 503.4l8.1 8.1 13.6 10.9 16.3 13.6 2.7 2.7M620.2 538.7l-24.5 24.4v2.7H593l-5.4-5.4h-2.7l-2.7-2.7h-2.7" style="fill:none;fill-rule:nonzero;stroke:#000;stroke-width:2.7px;stroke-miterlimit:4"/><path d="m579.5 557.7-2.8-2.7v2.7l-2.7 5.4v2.7l-5.4 5.5v2.7h-2.7l-2.7 2.7h-2.8M560.4 576.7h-2.7l-5.4 2.7h-2.7v2.7l-5.4-2.7-2.8 2.7v5.4h2.8v5.5H536l-5.4-5.5h-2.7v2.8l-2.8 2.7h-10.8l-2.7 2.7v2.7l2.7 2.7h-2.7l-2.7 2.7h-2.8v5.5l2.8 2.7h-2.8l-2.7 2.7H498l-2.7 2.7v2.7l-2.7 5.5v5.4l-2.7 2.7v2.7h-2.8v2.7l-5.4 5.5v2.7L479 650h-5.4l-8.2 8.1h-2.7V669l-2.7 2.7-2.7 5.4v2.8l-2.7 5.4-5.5 2.7v8.2h-2.7l-2.7 5.4H441v2.7l-2.7 2.7v2.7l-2.8 2.7v2.8l-2.7 2.7v13.5l-5.4 5.5M427.4 736.9l-2.7 2.7-5.4 2.7-2.8 2.7h-2.7l-5.4 2.7-2.7 2.8H403l-5.5 2.7-5.4 5.4H384M384 758.6l-10.9-8.1-8.1-8.2-5.5-8.1-5.4-2.8-16.3-16.2-13.6-10.9-5.4-5.4 13.6-10.9-19-16.3-5.5-5.4h19l5.5-2.7h10.8l5.5-5.5v-2.7h5.4v2.7l2.7-2.7h10.9l5.4-5.4h2.7l-16.3-16.3-13.6-10.9-10.8-10.8M335.1 612l21.7-19 21.7 21.7L403 593l5.4 8.1 8.1-5.4 8.2-8.2-16.3-16.2 5.4-2.8 5.5-5.4 10.8-8.1 5.4 2.7 13.6-10.9-8.1-5.4 2.7-5.4M443.7 536l2.7-5.5 13.6-10.8 32.6-32.6 10.8-8.2 2.7-2.7-2.7-5.4 13.6-2.7v-2.7h2.7l10.9-5.5M530.6 459.9l19 19 5.4 2.8M981.3 682.6l-10.9 10.8-21.7 19-32.6 27.2h2.7l-21.7 19-29.8 27.2-10.9 10.8 2.7 5.4-8.1 5.5M851 807.5l-24.5-21.7-8.1-8.2 16.3-16.3 21.7-19 13.6-10.9 16.3-16.2-8.2-24.5-2.7-21.7-5.4-10.9h-2.7l-10.9-5.4-21.7-5.4-10.9-10.9-5.4-2.7-8.2-10.9-5.4-8.1" style="fill:none;fill-rule:nonzero;stroke:#000;stroke-width:2.7px;stroke-miterlimit:4"/><path d="m804.8 614.7 10.9-5.4 8.1-2.7 19-13.6 35.3-19M658.2 454.5l-24.4 2.7-8.2-16.3M625.6 440.9l-2.7-8.1 5.4-2.7M628.3 430.1l10.9 2.7 5.4-2.7 8.2-2.7M652.8 427.4l2.7 5.4v8.1l2.7 13.6M441-199.8l-5.5 2.7-2.7 2.7-46.1 21.7-13.6 5.4-21.7 10.9-29.9 13.6h-5.4l-5.4 2.7v8.1l10.8 10.9 8.2 10.9 2.7 2.7 5.4 8.1 5.4 5.5 5.5 2.7v2.7l-2.8 2.7h-2.7l2.7 2.7v5.4l2.8 5.5v5.4l2.7 2.7 8.1 2.7h5.5v13.6l8.1 2.7h21.7l2.7 2.7h13.6l8.2 2.8-2.8 2.7v5.4l-2.7 8.1v13.6l-5.4 10.9-2.7 2.7-8.2 5.4v13.6l-2.7 8.1v10.9M207.5 107l-2.7-2.7-5.5 5.4v2.7h-2.7l2.7 2.7-2.7 2.7h-2.7v5.5h-2.7v5.4l-2.7 2.7 2.7 2.7v2.7l-2.7 2.8 2.7 5.4v2.7l-2.7 2.7 8.1 8.2v5.4h-2.7v2.7h-5.4v2.7l-2.7 5.4h2.7l-2.7 2.8v2.7h2.7l-2.7 2.7M185.8 183l-10.9-13.6-2.7-2.7-8.2-10.9-2.7 2.8-10.8-16.3-2.8-2.7-16.2-24.5-2.8 2.7-8.1-5.4L96.2 88v-5.5L74.4 60.8l2.8-2.7L66.3 50 52.7 36.4l2.7-5.5-19-19-8.1 2.8h-5.5l-5.4-5.5L9.3-1.6 12-15.2M736.9 446.4h-10.8l-5.5 8.1h-5.4l-2.7 2.7v-2.7h-5.4l-2.8 2.7v2.7l-2.7 2.8v-2.8h-2.7l-5.4 2.8-2.7-8.2M690.8 454.5v-29.9M690.8 424.6h5.4v-8.1l5.4-5.4-2.7-2.8-5.4-2.7 2.7-2.7h5.4l2.7 2.7 5.5-2.7M739.6 459.9l-8.1 2.8-2.7 2.7-5.4 2.7v2.7l2.7 2.7-5.5 5.4h-2.7l-5.4 2.8v2.7l-5.4 2.7h-2.8l-8.1 2.7h-2.7l-2.7 2.7h-8.2l-2.7-2.7" style="fill:none;fill-rule:nonzero;stroke:#000;stroke-width:2.7px;stroke-miterlimit:4"/><path d="M679.9 489.8h-19l-2.7 2.7M658.2 492.5l-10.9-10.8M647.3 481.7l5.5-2.8-5.5-2.7 2.7-2.7v-2.7l10.9-2.7M660.9 468.1l10.9-2.7v-8.2M671.8 457.2h13.5l5.5-2.7M652.8 427.4l5.4-5.5h2.7M660.9 421.9h8.1M669 421.9h2.8M671.8 421.9l-2.8 10.9v5.4l2.8 2.7v16.3M660.9 468.1l-2.7-13.6M612 356.8l8.2 13.5-5.5 2.8 5.5 10.8-5.5 5.4 5.5 5.5M620.2 394.8l-21.7 13.5-13.6 8.2M584.9 416.5l-13.6-13.6M571.3 402.9l8.2-10.8M647.3 481.7l-2.7 2.7-5.4-2.7v-2.8h-10.9v2.8l-5.4 5.4M622.9 487.1l-5.4-8.2 2.7-5.4-8.2-8.1M612 465.4l-5.4-16.3M606.6 449.1l10.9-5.5 8.1-2.7M612 465.4h-5.4l-16.3 8.1-2.7-2.7-5.4 2.7-8.2-5.4v-2.7l5.5-2.7-8.2-2.8h-10.9l-5.4 2.8M555 462.7v-21.8l2.7-5.4M557.7 435.5l10.9 10.9 5.4-5.5 10.9-8.1 5.4 8.1 10.9 10.9 5.4-2.7M557.7 435.5l5.5-13.6M563.2 421.9l8.1-19M584.9 416.5v2.7l5.4 2.7h13.6l2.7 2.7h2.7l2.7 5.5 5.5-2.7 10.8 2.7M690.8 424.6h-10.9l-8.1-2.7M669 421.9l2.8-2.7 2.7-5.4 5.4-5.5h5.4l2.8-5.4-5.5-5.4 2.7-5.4 5.5 2.7h2.7M579.5 503.4h5.4l10.8-10.9h2.8l5.4-5.4 8.1 5.4v-5.4h2.7l2.8 2.7 5.4-2.7M658.2 492.5l-2.7 2.7-21.7 24.5M633.8 519.7 622.9 536l-2.7 2.7M660.9 373.1h-8.1v2.7l-2.8 2.7h-2.7l-2.7 2.7 2.7 2.7-2.7 2.7-5.4 2.7 5.4 5.5-2.7 2.7 5.4 5.4-5.4 2.7" style="fill:none;fill-rule:nonzero;stroke:#000;stroke-width:2.7px;stroke-miterlimit:4"/><path d="m641.9 405.6-5.4-2.7-8.2-2.7h-2.7l-5.4-5.4M660.9 101.5 650 117.8l-10.8 10.9-13.6-2.7h-8.1l-10.9-5.5-16.3-13.5-10.8-5.5-27.2-5.4-19-10.9-27.2-10.8-10.8-2.7-8.2-2.7-13.5-2.8-19-5.4m38 244.4 2.7-5.5-2.7-2.7-5.5-2.7 5.5-2.7v-2.7h2.7v-13.6h2.7l2.7-2.7V259l13.6-2.7 10.8-8.1 2.8-2.8 8.1-5.4v-2.7l2.7-2.7 10.9 5.4 2.7 2.7h2.7l2.7 5.5 2.7 2.7 10.9 5.4 5.4-2.7" style="fill:none;fill-rule:nonzero;stroke:#000;stroke-width:2.7px;stroke-miterlimit:4"/><path d="M576.7 253.6 574 259l-16.3 10.9-13.5 5.4-19.1 10.9-5.4 2.7H517l-2.7 2.7-5.4 2.7v2.7l-8.2 2.7-8.1 5.5M579.5 256.3l-2.8-2.7M492.6 305.2v2.7l2.7 2.7v2.7l-2.7 2.7v5.5l-2.7 8.1v10.9l-2.8 2.7v8.1h-2.7M484.4 351.3l-29.8-29.8-8.2-5.5M446.4 316l-27.1-27.1-2.8-5.4-2.7-2.8-10.8-16.3-2.7-2.7-8.2-13.5M660.9 421.9h-2.7l-2.7-2.7-13.6-10.9v-2.7M764.1 636.4l-24.5 10.9 27.2 40.7 10.9 13.6-16.3 10.8-8.2 2.8 2.7 8.1M755.9 723.3l-29.8 16.3-2.7-5.4-19.1 8.1-29.8 19-19-29.9 8.1-5.4-5.4-5.4M658.2 720.6l-5.4-8.2-24.5-43.4 16.3-8.1M644.6 660.9l24.4-13.6-2.7-8.2 29.9-16.3 21.7-10.8-5.4-5.4 27.1-13.6M739.6 593l2.8 5.4 5.4 8.2 2.7 5.4 2.7 2.7v5.4l2.7 5.5 8.2 10.8M755.9 723.3l16.3 21.7 13.6 13.6 5.4 10.9h-5.4l-13.6-2.8-21.7 10.9M750.5 777.6l-19 10.9-40.7 19v-2.7l-19 8.1 5.4 8.1-8.2 2.8-2.7 5.4-8.1 2.7-2.7-2.7-10.9 8.1-8.1-5.4-19 19-19 16.3v-13.6l2.7-27.1 2.7-13.6 2.7-5.4v-2.7l-2.7-2.8-24.4-21.7" style="fill:none;fill-rule:nonzero;stroke:#000;stroke-width:2.7px;stroke-miterlimit:4"/><path d="M579.5 780.3h2.7l-2.7-2.7" style="fill:none;fill-rule:nonzero;stroke:#000;stroke-width:2.7px;stroke-miterlimit:4"/><path d="m579.5 777.6 29.8-21.7v2.7l10.9-8.1h-2.7l19-8.2 13.5-8.1 8.2-13.6M60.9 595.7l-2.8 2.7 13.6 10.9 13.6 13.5 27.1 24.5 24.5 21.7 13.6-16.3 10.8 10.9 2.7 5.4 13.6 10.9 13.6 13.5 16.3 13.6 5.4 8.2 21.7 16.2 2.7 2.8-13.5 13.5 24.4 21.8 21.7 19 16.3 13.5v2.8" style="fill:none;fill-rule:nonzero;stroke:#000;stroke-width:2.7px;stroke-miterlimit:4"/><path d="M286.2 804.8h2.7l10.9 10.8-13.6 13.6-24.4 19-5.5 2.7-19 19h2.8l-43.5 43.5-16.3 10.8-5.4 8.2-13.6 13.5-10.8 8.2-8.2 8.1M3.8 546.8l2.8-2.7 19 19 5.4 2.7 29.9 29.9M231.9 511.5l-5.4 8.2v5.4l2.7 2.7 8.1 5.4 21.8 21.8 10.8 8.1 16.3 10.9 29.9 21.7 16.3 13.6 2.7 2.7" style="fill:none;fill-rule:nonzero;stroke:#000;stroke-width:2.7px;stroke-miterlimit:4"/><path d="M384 758.6h-5.5l-2.7 2.7-8.1 2.7-10.9 5.5h-2.7l-5.4 2.7-5.5 5.4v2.7l-5.4 2.7v2.8l-8.1 2.7h-2.8l-2.7 2.7v2.7l-8.1 8.1v2.8l-2.7 2.7h-10.9l-5.4-2.7h-2.7l-2.8-2.8h-2.7l-2.7 2.8M60.9 595.7V593l5.4-2.7 2.7-2.8 5.4 2.8h5.5l5.4 2.7 2.7 2.7h2.7l5.5-5.4 2.7-5.5h2.7l5.4-2.7h2.7v-2.7l2.7-2.7h2.8l5.4-5.4 5.4-2.8 2.7-2.7 2.8-5.4 5.4-5.4v-8.2l2.7-2.7 5.4-2.7v-2.7h5.5l2.7-5.5 2.7-2.7h2.7l2.7-2.7h8.2v-2.7h5.4l2.7 2.7 2.7-2.7h16.3l5.4-2.7h2.8l5.4-2.7 8.1-2.7h2.8l2.7-2.8 2.7-5.4M560.4 576.7l-2.7 10.8v10.9l-2.7 19v2.7l8.2 16.3 2.7 13.6v5.4l2.7 8.2V688l2.7 10.9v16.3l-2.7 16.2-2.7 5.5-2.7 13.6 5.4 8.1 2.7 8.1 8.2 10.9M579.5 780.3l-19.1 19-21.7 16.3-2.7-2.7-19 16.3 5.4 5.4-8.1 27.2" style="fill:none;fill-rule:nonzero;stroke:#000;stroke-width:2.7px;stroke-miterlimit:4"/><path d="m514.3 861.8-21.7-16.3-38-32.6 19-19-10.9-19-2.7-2.7h-2.7v-2.7l-2.7-2.8h-8.2l-2.7-5.4-8.2-10.8-8.1-13.6M362.2 459.9l51.6 51.6 5.5 2.7M419.3 514.2l10.8 10.9 13.6 10.9M579.5 557.7l16.2 21.7 10.9 19 10.9 16.3 27.1 46.2M185.8 183l-2.8 2.7h2.8l-2.8 2.7v5.5l-2.7 2.7h2.7l-2.7 2.7 2.7 5.4v5.4l2.8 2.8-2.8 2.7v2.7l-2.7 2.7-40.7-54.3-13.6-19-10.8 8.1 8.1 13.6-8.1 2.7v2.7l-2.8 2.8v2.7l-8.1 5.4-16.3 8.2-8.1 5.4h-2.7l5.4 5.4-10.9 5.4v2.8l-8.1 2.7 2.7 5.4h-5.4l2.7 2.7-8.2 5.5-5.4 2.7M373.1 332.3l2.7 2.7 16.3 13.6 8.2-5.4 5.4 2.7 5.4-2.7 24.4-19 10.9-8.2M484.4 351.3v2.7l-2.7 2.8-2.7 5.4-5.4 2.7M473.6 364.9h-5.5l-8.1 2.7v2.7l-2.7 2.8-5.5 2.7v2.7h-5.4v2.7M446.4 381.2l-5.4 2.7h-2.7l-5.5 2.7h-2.7v2.7h-2.7v2.8l-2.7 2.7-2.7-2.7-8.2 8.1h-2.7v2.7l-2.7 2.7v2.7H403l-2.7 2.8h-2.8v2.7M397.5 413.8l-2.7 2.7-5.4 2.7-8.2 5.4-2.7 2.8M362.2 267.2l-8.1 2.7v2.7l-8.2 5.4-2.7-5.4-8.1 5.4h-2.7l-2.7-2.7-2.8 2.7-8.1 5.5-5.4 2.7M210.2 394.8l-13.6-24.5-24.4-40.7-35.3 16.3M136.9 345.9l-8.2-13.6-19-27.1-8.1-13.6-2.7 2.7v2.7h-8.2l-13.5-24.4-16.3-24.4-2.8-2.8-8.1-13.5" style="fill:none;fill-rule:nonzero;stroke:#000;stroke-width:2.7px;stroke-miterlimit:4"/><path d="m136.9 345.9 8.1 10.9-5.4 2.7-13.6 8.1-5.4 2.7-8.2 5.5 2.8 2.7-8.2 5.4 5.4 10.9-8.1 2.7-5.4 2.7h-2.7l-13.6 5.4-8.2 5.5-2.7-2.8h-5.4l-2.7-2.7h-2.7l-8.2 2.7-24.4 13.6 13.6 13.6-32.6 19-2.7-2.7-8.2 5.4-16.3 8.2 2.7 2.7-13.5 8.1-8.2 2.7 2.7 5.5 10.9 19 27.1 43.4M446.4 381.2l27.2 27.1v2.8M473.6 411.1v2.7l-2.8 5.4v16.3h-2.7l2.7 2.7-2.7 2.7 2.7 2.7v5.5h-2.7v8.1h-32.6M435.5 457.2v-2.7L422 443.6l-16.3-16.2 2.7-2.8-10.9-10.8M419.3 514.2l2.7-8.1 5.4-19 5.4-24.4 2.7-5.5M473.6 411.1l21.7 21.7 5.4-2.7 2.7 8.1 10.9 16.3 5.4-2.7 10.9 8.1M563.2 421.9l-13.6-2.7h-5.4v-2.7l-16.3-2.7h-2.8l-16.2-16.3-21.8-19-13.5-13.6M492.6 305.2l5.4 2.7v2.7l5.4 2.7 19 21.7 13.6 13.6M555 462.7v19M851 807.5l-35.3 35.3v2.7l-10.9 8.1-10.9 5.5-5.4 5.4-2.7 5.4M785.8 869.9l-8.1-13.6v-2.7l-13.6-24.4 13.6-8.2-27.2-43.4M764.1 636.4l5.4 8.2 2.7-5.5v-5.4l2.7-2.7v-5.4l16.3-10.9 10.9-5.4 2.7 5.4M514.3 861.8v5.4L498 883.5l-21.7 19-8.2 8.1 16.3 19.1h2.7l-2.7 89.6 10.9 8.1 13.6 13.6-5.5 2.7 19 19 5.5-2.7 35.3 35.3 21.7 13.6 2.7 5.4M253.6 1114.3l2.7-5.4-35.2-29.9-32.6-27.2-10.9-10.8 24.4-24.5h-2.7L166.8 984l-16.3-13.6-8.2-8.2M785.8 869.9l-10.9 8.2 38.1 32.5M739.6 593l-8.1-10.9-2.7-5.4M728.8 576.7l13.6-13.6M742.4 563.1l13.5-10.8 38-38.1 5.5-2.7M679.9 489.8l-5.4 5.4 10.8 8.2-2.7 2.7 16.3 16.3h2.7l40.8 40.7M728.8 576.7h-8.2l-10.8 5.4-5.5-2.7h-2.7l-10.8-5.4-21.8-5.5h-2.7l-32.5-48.8" style="fill:none;fill-rule:nonzero;stroke:#000;stroke-width:2.7px;stroke-miterlimit:4"/></g><path d="M739.6 459.9h-2.7l-5.4 2.8-8.1 8.1 2.7 2.7-2.7 2.7h-2.8v2.7h-2.7l-5.4 2.8v2.7h-2.7l-2.7 2.7h-2.8l-8.1 2.7-2.7 2.7h-8.2l-5.4-2.7h-19l-5.4 5.4-24.5 29.9-10.8 13.6-65.2-57v-40.8l32.6-70.6 38-16.3 2.7-8.1" style="fill:none;fill-rule:nonzero;stroke:#000;stroke-width:6.8px;stroke-miterlimit:4"/><path d="m663.9 99.5 2.7 38.1-10.8 54.3-10.9 8.1-2.7 13.6-13.6 21.7-8.1 8.1-13.6 10.9-24.4-2.7v5.4h5.4l5.4 2.7-2.7 2.7 5.4 10.9 5.5 2.7 2.7 2.7v2.8l8.1 8.1v2.7l2.7 5.4v10.9l2.7 2.7v10.9l5.5 5.4v8.2l8.1 8.1h5.5l2.7 5.4 2.7 2.7v2.8h5.4l2.7 2.7h2.7l10.9 10.8h2.7l-2.7 2.8 8.1 2.7 2.8 2.7h2.7l8.1 8.1h5.5v2.7l10.8 10.9h2.7l-8.1-5.4 2.7-2.7h8.1v2.7l2.8 2.7h2.7l5.4 2.7h-5.4v2.7h8.1l2.7 2.7h2.8v5.5h-2.8v2.7l2.8-2.7v2.7l-8.2 2.7h2.7v2.7h-2.7v5.4l10.9-5.4 10.8 10.9v2.7l5.5 5.4v5.4l-5.5 2.8h8.2v5.4h-2.7l5.4 2.7-2.7 2.7h-2.7l-2.8-2.7h-2.7l2.7 2.7v2.7l2.8 2.8h2.7l5.4 5.4-2.7 5.4 19 19 8.1 5.4 5.5 2.8 8.1 5.4 10.9 5.4 8.1 8.2 16.3 8.1 2.7 2.7 16.3 8.2h2.7v5.4h2.7l5.5 2.7 5.4 5.5 5.4 2.7v2.7h2.8v2.7l2.7 2.7v5.4l5.4 5.5h2.7l8.2 5.4 2.7 2.7 5.4 2.7" style="fill:none;stroke:#fff;stroke-width:7.6px;stroke-linecap:butt;stroke-miterlimit:2"/><circle cx="480" cy="490.6" r="430" style="fill:none;stroke:#fff;stroke-width:15px"/></svg>