<svg xmlns="http://www.w3.org/2000/svg" viewBox="0 0 30 40"><path fill="#f7f3ea" d="M13.68 14.44s.1 0 .1-.1c.61-2.01 1.77-5.85 2.52-8.94.27-.99.03-1.12-1.02-1.43-.2-.03-.34-.14-.34-.24s.14-.2.44-.24c.37-.03 2.96-.31 3.33-.31.2 0 .17.37.07.85a781.59 781.59 0 0 0-3.23 10.98c-1.05 3.71-1.94 6.53-2.72 9.52-.14.54-.07.71.24.71.65 0 1.87-1.05 2.55-1.94.41-.54.41-.07.2.34-.75 1.56-2.82 3.47-4.49 3.47-.51 0-.92-.27-.85-.82.1-.48.61-2.07 1.33-4.59.1-.2.17-.68-.24-.17-2.62 3.43-5.13 5.51-6.87 5.51-.68 0-1.53-.61-1.53-2.04 0-2.99 2.52-6.94 4.79-8.91 1.39-1.22 3.09-2.11 4.25-2.11.61 0 .95.03 1.46.44Zm-4.12 1.94c-2.82 3.2-4.45 7.31-4.45 9.04 0 .58.27.75.65.75.78 0 2.11-1.09 3.3-2.45 2.07-2.35 3.06-4.35 3.84-6.46.27-.92.27-1.7.17-2.04-.17-.58-.44-.78-.71-.78-.24 0-1.16.07-2.79 1.94Zm17.27-.72c0 .71-.54 1.73-1.7 2.62-1.29 1.02-3.23 1.67-4.73 1.77-.14 0-.27.2-.31.31-.34.85-.68 2.48-.68 3.5 0 .61.1 1.67 1.43 1.67.95 0 2.04-.75 2.92-1.84.14-.17.24-.24.27-.07.03.07-.03.41-.27.92-.82 1.39-2.24 2.58-4.01 2.58-1.12 0-2.24-1.29-2.24-3.26 0-2.35 1.26-5.07 2.24-6.49 1.43-1.94 3.5-3.37 5.13-3.37 1.43 0 1.94.85 1.94 1.67Zm-6.39 3.81c-.03.1.03.14.17.1 2.01-.31 4.79-2.75 4.79-4.15 0-.58-.24-.95-.68-.95-1.46 0-3.23 2.07-4.28 5Z"/></svg>
