<svg xmlns="http://www.w3.org/2000/svg" viewBox="0 0 155.5 40"><defs><path id="a" d="M11.94 15.67c0 .71-.54 1.73-1.7 2.62-1.29 1.02-3.23 1.67-4.73 1.77-.14 0-.27.2-.31.31-.34.85-.68 2.48-.68 3.5 0 .61.1 1.67 1.43 1.67.95 0 2.04-.75 2.92-1.84.14-.17.24-.24.27-.07.03.07-.03.41-.27.92-.82 1.39-2.24 2.58-4.01 2.58-1.12 0-2.24-1.29-2.24-3.26 0-2.35 1.26-5.07 2.24-6.49 1.43-1.94 3.5-3.37 5.13-3.37 1.43 0 1.94.85 1.94 1.67Zm-6.39 3.8c-.03.1.03.14.17.1 2-.31 4.79-2.75 4.79-4.15 0-.58-.24-.95-.68-.95-1.46 0-3.23 2.07-4.28 5Z"/><path id="b" d="M18.16 15.46c-.1.37-.34 1.33-1.43 3.67-.14.34.03.37.24.1 1.5-1.94 4.32-5.2 6.9-5.2.75 0 1.12.65 1.12 1.26 0 .41-.17 1.05-.58 2.04-.82 2.18-2.41 5.78-2.89 6.94-.1.37-.07.44.17.44.41 0 1.84-1.05 2.82-2.14.34-.31.37.07.03.54-1.36 2.04-4.01 3.98-5.27 3.98-.48 0-.58-.68-.44-1.02.14-.41 3.71-8.23 4.25-9.86.2-.65.07-1.19-.48-1.19-.82 0-2.14.75-4.22 3.47-1.67 2.35-3.06 5.24-4.62 7.96-.14.24-.61.41-1.16.41-.2 0-.41-.17-.37-.41 0-.24.2-.82.41-1.26 1.02-2.41 3.16-7.41 3.77-8.77.24-.51.14-.78-.34-.78-.54 0-1.33.41-2.01 1.43-.17.24-.37.14-.27-.24.27-.75 1.26-2.79 3.3-2.79.99 0 1.19 1.02 1.05 1.43Z"/></defs><g fill="#f7f3ea"><use href="#a"/><use href="#b"/><path d="M41.89 19.47c0 .95-.58 2.62-2.24 2.62s-1.94-1.46-1.94-1.9c0-.54.2-.92.34-1.19.17-.24.58-.51.78-.48.27.03.78 0 1.02-.1.37-.1.44-.65.2-1.02-.24-.31-.88-.88-2.11-.88-1.7 0-3.98 1.87-4.05 4.69-.07 3.81 2.58 5.64 5.81 5.64 4.59 0 9.99-5.47 14.04-10.06 3.3-3.74 8.09-9.11 9.42-10.4.71-.71 1.29-1.09 1.63-1.09.27 0 .27.41-.1 1.43-.68 1.9-4.28 13.5-5.07 16.42-.68 2.55-.58 2.89 1.02 3.06.44 0 .58.14.58.31 0 .14-.31.2-.68.2s-1.63-.07-2.65-.07c-1.36 0-3.74.24-4.15.24-.44 0-.68-.1-.68-.24s.2-.27.71-.37c2.14-.27 2.35-.44 3.2-2.58.51-1.16 1.87-5.61 1.97-5.85.07-.2 0-.27-.2-.27-.24 0-3.26.1-4.25.37-.58.14-.85.34-1.39.92-1.97 2.21-7.85 9.08-13.29 9.08-3.98 0-7-2.72-6.97-6.63.03-2.38 1.87-5.37 5.17-5.37 1.9 0 3.88 1.36 3.88 3.54Zm17.57-3.36c.2-.54 2.24-6.22 2.55-7.14.1-.24-.07-.2-.2-.14-.99.75-5.88 6.63-6.73 7.82-.1.07-.1.2.07.17.34-.07 3.16-.14 3.88-.27.1 0 .34-.2.44-.44ZM68.68 15.5c-.03.78-1.05 3.33-1.26 4.05-.1.37.07.48.24.17.78-1.26 1.56-2.58 2.48-3.67.95-1.22 2.07-2.04 2.96-2.04.75 0 1.09.68 1.09 1.22 0 1.26-1.09 1.97-1.46 1.97-.24 0-.41-.1-.37-.44 0-.95-.07-1.5-.54-1.5-.58 0-1.56 1.16-3.26 4.45-1.02 1.97-2.28 4.56-3.3 6.77-.2.48-.48.65-.61.65-.24 0-.65-.07-.85-.37-.07-.1-.1-.27-.03-.54.1-.44 1.73-5.17 3.23-9.59.2-.61.1-.85-.14-.85-.71 0-1.7 1.16-2.28 1.7-.2.17-.34.03-.34-.1.03-.75 1.43-3.16 3.4-3.16.71 0 1.09.54 1.05 1.29ZM82.62 14.58c.24.14.48.24.71.24.51 0 1.7-.03 2.14-.03.27.03.44.27.44.51 0 .27-.41.61-.65.61-.31 0-1.39-.17-1.94-.2-.03-.03-.1 0-.1.17 0 .24.07.71.03.99 0 1.9-1.36 4.66-2.65 5.98-.92.99-2.01 1.73-2.89 1.87-.82.14-.99.17-1.19.27-.58.27-.58.61-.58.95 0 .51.44 1.26 1.6 2.04 1.05.75 2.14 1.53 3.16 2.48.78.71 1.67 1.9 1.67 2.82s-.71 1.87-2.07 2.55c-1.5.82-2.89.99-4.15.99s-3.37-.37-5-1.53c-1.09-.71-1.53-1.67-1.5-2.41.03-.78.58-1.46 1.46-2.01 1.36-.85 2.55-1.22 4.28-1.56.1-.03.1-.17.03-.24-.92-.85-1.12-1.67-1.12-2.31 0-.27.14-.68.44-.92.24-.27.71-.71 1.19-.92.07-.03.03-.14-.07-.17-.99-.71-1.43-1.77-1.43-2.69 0-2.48 1.33-5 3.2-6.63 1.33-1.09 2.72-1.36 3.43-1.36.58 0 1.12.31 1.53.51Zm-6.94 15.06c-2.35.65-4.22 1.9-4.22 3.09 0 .34.1 1.02 1.12 1.7 1.29.75 2.99 1.36 5.58 1.36 1.87 0 2.69-.71 2.69-1.5 0-.44-.2-1.09-1.09-1.97a14.52 14.52 0 0 0-3.54-2.58c-.27-.1-.41-.14-.54-.1Zm3.03-13.33c-1.97 2.35-2.82 5.58-2.86 6.73 0 1.02.44 1.33.85 1.33.37 0 .85-.24 1.46-.82 1.63-1.56 3.64-6.02 3.67-7.79 0-.65-.2-1.16-.75-1.16-.31 0-1.02.1-2.38 1.7Z"/><use x="82.74" href="#a"/><use x="82.74" href="#b"/><path d="M114.97 15.22c-.14 0-.27.27-.34.48-.41 1.09-1.97 5.61-2.92 8.63-.07.24-.03.54.17.54.37 0 1.43-.58 2.65-1.94.58-.61.41.03.17.41-1.29 1.94-3.64 3.77-4.69 3.77-.27 0-.68-.34-.68-.82 0-.44.2-1.09.37-1.6.41-1.16 2.01-6.05 3.06-9.04.03-.14.07-.37-.1-.37-.51-.03-.99 0-1.36-.03-.24-.03-.27-.14-.27-.17 0-.14.31-.37.44-.37.17-.03.65-.1 1.5-.14.07 0 .2-.17.24-.24.31-.68.85-1.9 1.22-2.45.2-.31.88-.71 1.39-.71.17 0 .2.31.1.58-.27.92-.54 1.9-.75 2.52-.03.07 0 .2.03.2.61 0 1.6-.07 2.55-.07.07 0 .24.1.24.17s-.17.41-.75.48c-.71.07-2.01.17-2.28.17ZM123.23 14.78c.03.27-.2 1.19-.44 1.77-.75 1.9-2.75 6.77-3.5 8.47-.24.54-.1.65.07.65.48 0 1.94-1.33 2.48-1.9.54-.58.41 0 .17.37-1.46 2.01-3.16 2.99-4.22 2.99-.27 0-.65-.48-.65-.95-.03-.37.24-1.22.82-2.62.61-1.36 1.94-4.83 3.06-7.28.17-.37.1-.61-.07-.61-.51 0-1.29.51-2.24 1.5-.54.54-.54.07-.27-.31 1.5-1.87 3.26-2.86 4.21-2.86.41 0 .54.48.58.78Zm1.16-5.16c0 .82-.78 1.22-1.19 1.22-.58 0-.95-.48-.95-1.05 0-.65.58-1.29 1.19-1.29.78 0 .95.78.95 1.12Z"/><use x="111.9" href="#b"/><path d="M148.25 15.05s.14 0 .17-.07c.44-.78.68-1.02.82-1.02.24 0 .58.17.85.37.1.07.14.31.07.54-.27.88-2.35 6.29-3.57 9.89-.07.17.03.31.2.31.85 0 2.01-1.02 2.86-2.18.2-.2.34-.17.27.1 0 .14-.1.34-.2.54-.88 1.56-2.99 3.6-4.73 3.6-.44 0-.75-.2-.75-.51 0-.44.99-2.75 1.9-5.24.07-.17-.03-.24-.1-.14-3.67 4.18-6.08 5.88-7.21 5.88-.54 0-1.05-.54-1.05-1.43s.65-2.45 1.67-3.98c1.12-1.73 2.86-3.6 4.69-5.03 1.33-1.05 2.96-2.01 3.4-2.01.24 0 .51.17.71.34Zm-5.51 3.64c-1.33 1.46-2.79 4.42-2.79 5.92 0 .27.1.71.51.71.61 0 1.5-.65 2.48-1.53 2.14-2.01 3.81-4.59 4.69-7.1.03-.07 0-.17 0-.24-.14-.07-.54-.27-.95-.27-1.33 0-2.89 1.33-3.94 2.52Z"/></g></svg>
