<svg xmlns="http://www.w3.org/2000/svg" viewBox="0 0 35 35"><path fill="#f8f4eb" d="M18.03 3.44c-1.33 0-2.21.54-2.65 1.36-.17.1-.27.03-.27-.37 0-.88 1.16-2.28 2.92-2.28 1.53 0 2.92 1.36 3.57 2.72.44.82.68 1.87.68 2.69 0 2.89-1.9 4.69-4.18 6.12-.95.58-1.39 1.36-1.39 2.35 0 1.19 1.53 2.48 3.03 2.48 1.97 0 2.38-1.84 2.45-3.16.1-1.36.37-2.01 1.5-2.96 1.22-.99 2.18-1.05 3.23-1.05 3.57 0 5.2 2.69 5.2 3.77 0 .27-.07.54-.17.54s-.2-.17-.41-.58c-.75-1.46-1.53-1.9-2.69-1.9-1.02 0-2.04.88-2.04 1.94 0 .54.17.95.17 1.87 0 2.31-2.82 4.28-4.9 4.28-2.38 0-4.52-2.04-5.64-4.05-.17-.27-.27-.1-.31.07-.1.58-.51 2.48-.51 3.91 0 .95.03 1.84.1 2.58 0 .07.2.2.24.2 3.26.61 5.44 2.52 6.12 3.26.82.92 1.43 2.11 1.63 3.2.14.65.31.71.61.75 1.16.07 2.45-.31 2.75-.48.48-.27.75-.71.88-1.73.03-.51-.03-.82.24-.82.14 0 .27 0 .44.27 1.19 1.9 1.39 2.04 1.39 2.38 0 .27-.14.71-.75 1.05-1.22.75-3.09.99-4.59.99-3.74 0-6.94-2.07-8.47-4.69-.48-.78-.99-1.7-1.26-3.06 0-.03-.03-.1-.41-.14-2.04-.17-4.39.17-6.12 1.33-.78.48-1.16 1.46-1.16 1.9 0 .85.95 1.39 1.73 1.39.31 0 .58.34.58 1.02 0 .61-.44 1.46-1.36 1.46-1.36 0-2.31-1.43-2.31-2.72 0-3.47 5.17-5.47 8.6-5.47.1 0 .31-.1.31-.2-.07-.61-.07-.85-.07-1.6 0-1.53.44-3.91.65-4.62.1-.31.07-.48-.14-.41-.2.03-.54.41-.82.71-1.16 1.33-3.16 3.98-5.13 3.98-.61 0-1.36-.24-2.21-.85-1.33-.95-1.67-2.07-1.67-2.69 0-1.29.95-2.69 1.56-3.74.34-.61.48-1.22.48-1.46 0-.95-.92-1.33-1.5-1.33-1.33 0-2.18.65-2.65 1.39-.1.17-.14.31-.27.31s-.17-.14-.17-.48c0-1.46 2.31-3.03 4.18-3.03 1.67 0 3.16 1.5 3.2 3.13.03 1.05-.48 1.94-.48 2.96 0 1.16.92 1.97 1.9 1.97 1.39 0 2.62-.92 2.62-2.38 0-.34-.34-.78-.82-1.36-.51-.58-.61-1.09-.61-1.43 0-2.35 2.79-3.74 4.62-4.56 1.6-.68 2.65-1.7 2.65-2.82 0-1.02-.92-1.94-2.14-1.94Zm3.57 24.38c-1.22-1.26-3.81-2.31-5.47-2.65-.07 0-.17.1-.17.17.37 1.53 1.5 2.82 2.55 3.84.65.65 2.18 1.46 3.26 1.67.2.1.41.07.61-.07.27-.24.34-.65.34-.95 0-.34-.31-1.16-1.12-2.01"/></svg>
