<svg xmlns="http://www.w3.org/2000/svg" version="1.1" viewBox="0 0 205 50">

  <path d="M161,5.4c.2.3-.2,1.3,0,1.6.2.3,3-.2,3.2,0,.2.2-.2,1.3,0,1.6.3.3,1.3-.1,1.5,0,.2.2-.1,1.3.1,1.9.3.9,1.8,2.1,2.3,3.5.2.6,0,1.5.2,2.3,0,.4.6.7.6.9,0,1.1-2.9,4.2-3.1,5-.2.9.1,2.6,0,2.8-.1.1-3.1.7-3.2.8-.1.1.1.7,0,1.2-.2.4-.7.7-.8.9,0,.3,1.6,1.4,2,2,1,1.6,2.5,4.7,3.3,6.5.5,1.2,2.2,5.3,2,6.1-.8,2.6-4.7,1.6-6.5,2.9.4-1.6-1.3-2.1-1.6-2.9-.3-1,.2-3.4,0-3.6-.3-.2-2.2.2-2.5,0-.1,0,0-1.9-.1-2.7-.6-2.7-2.2-5.1-2.4-7.9-1.1.2-4.7-1.8-4.9-1.6-.2.3-.1,6,0,6.9.1.6,1.4,2.1,1.4,2.5,0,.2-.7.7-.7,1.6,0,1.5.3,3.7,0,4.9-.4,1.4-5.1,2.8-5.7,2.1-.3-.3.3-2.1-.4-1.6-1.8,1,.3,2.7-2,3.3-.8-2.5-1.1-5.1-.8-7.8.2-2.1,1.9-8,1.6-9.7-1.4-7.7.1-12.1.1-18.9,0-1-1.3-1.8-.9-3.3.6-2.1,6.5-1,8.6-1.2,1,0,1.5-.9,2.4-.9s1.4.8,2.4.9c.9.1,3.5-.3,3.7,0M157.8,9.5c-.2-.3-1,.9-1.9.8-.5,0-1.1-1.1-1.3-.7-.2.3.2,1.3,0,1.6-.2.3-3-.2-3.3,0-.3.3-.2,8.6,0,9.4.1.4,1.8,2,2,2,.3,0,.5-.6.9-.6.8-.1,1.2.6,1.5.6.4,0,1.7-1.1,2.5-1.3.2,0,.5.5.8.5.2,0,1.9-1.6,2-2,.2-.7.3-7.5,0-7.7-.4-.3-2.1.7-1.6-1.2l-1.2.3c-.8.1-.2-1.2-.4-1.6" fill="#a8d8de"/>
  <path d="M122.6,39.7c.2.2,5.5.2,5.7,0,.2-.2-.2-1.9,0-2.8.2-.7,1.5-1.2,1.4-1.7-.6-7.9.7-16.6.2-25.4,0-1-1-1.7-.8-2.3,1.4-3.4.9-1.8,3-1.4.8.2,1.2-.6,1.5-.6.4,0,1.6,1.1,2.8.7.8,1.8.6,3.4.8,5.3.7,7.5-.4,16.2-1.5,23.8-.1,1-.7,6.6-.9,6.8-.3.2-1.3-.2-1.5,0-.3.3.1,1.2-.1,1.5-.2.2-1.4,0-2,.9-.5.6-.3,1.5-.4,1.7-.2.3-.9-.7-1.3-.8-.9-.1-1.4.8-2.2.7-3.5-.7-1.8.4-3.5.9-.8.2-1.2-.6-1.7-.7-.8-.1-2.7,0-2.8,0-.2-.3.2-2.1,0-2.5-.3-.4-.9,1-1.6.5-1-.7-.7-1.9-.8-2.1-.2-.3-1.4,1.1-1.6.8-.1-.1.1-1.2,0-2-.3-1.1-2-3-2.3-5.1-.8-5.7-.8-15.4-.7-21.2,0-1,.6-5.3.6-5.6,0-.4-.8-.9-.8-1.7,0-.8,1.6-3.7,2.1-3.7.3,0,1,1.4,1.7,1.6,1.2.3,2.9-.2,4,0,1.8.5,1.3,5.1,1.3,6.9,0,1.9-.7,4.6-.9,6.5-.4,5.1,1,9.8.8,14.7-.1,3.4.3,2.8,1.6,5,.2.4,0,1,0,1.1" fill="#30bdd2"/>
  <path d="M202.7,46.3c-1.5.3-.5-1.3-.8-1.6-.5-.5-1.8.7-2.2.8-.7.2-1.2-.6-1.5-.6-.6,0-1.2,1.3-2.9.2-3-1.9-2-3.3-2.4-5.8-.2-.9-.6-1.2-.8-1.7-.2-.7,0-1.8,0-1.9-.5-.5-4.1,1.2-3.3-1.6-1.5-.3-.5,1.3-.8,1.6-.2.2-2.6,0-3.6,0-.5,0-1.1,1.1-2.1.8.2,1.9-1,3.6-1.6,5.4-.2.8-.5,3.9-.9,4.4,0,0-2.4,0-2.4,0-.5-.6.7-5.2-3.3-1.6,0-1.2-.2-2.5,0-3.6.3-1.2,2-3.6,2.3-5.1.1-.8-.7-1.4-.8-2.3-.1-1.3,4.4-13.5,4.9-16.5.2-.9-.9-1.4-.7-2.2.2-1.3,2.3-5.5,2.3-5.8,0-.3-.9-.8-.7-1.6,0-.3,2.6-2.8,2.9-2.9,1.4-.4,2.1.7,3.2.8,1.8.2,5.6-.7,6.1,1.2.2.9-.2,2.1.1,3.1.9,3.1,2.1,5.3,2.6,8.2,1.1,7.3,3.2,14.9,4.8,22,.4,1.7,2.5,3.5,1.6,6.2M188.8,13.6c-.4-.5-4.1,1.4-4,2,0,.2.6.4.7.9.2,1.4-1.1,9.5-1.6,11.3-.2.7-1.8,2.8-1.5,3,.2.2,2.1-.3,2.9.7l6.1-1.9-.9-6.5c-1.1-1.6-1.4-3.9-1.6-5.8,0-.9.2-3.5,0-3.7" fill="#f6947f"/>
  <path d="M49.9,11.1c-.5.5-1.6-.5-2-.6-.3,0-.6.4-.8.4-2.2-.4-3-1.8-5.7-.5-.7.3-1.1,1.1-1.8,1.5-.4.2-1,0-1.1,0-.4.4,1,2.4.9,3.7,0,.9-1.6,3.7-.9,4.5.1.1,2.4.8,2.8.8,2.1.3,3.4-.5,5.3-.8l1.6,8.6c-.1.8-3.1-.3-3.2-.4-.3-.3.1-1.3,0-1.6-.1-.2-1.8,1.1-3.7.8-.8-.1-2.4-1.3-2.8-.8-.3.3,0,8,0,9.4,0,.9.7,1.3.8,1.7.2.9-1.1,1.6-.8,1.9.5.4,3.5-1.6,4.1-.8.4.5-.9,2,1.3,1.7,1-.1,1.4-.7,1.7-.8.7-.1,1.2.6,1.5.6.5,0,1.7-1.1,3.3-.6,2.1.6,1.5,6.5-.8,5.7-.3-.1-.6-.6-1-.7-1.1-.2-4.5-1-4.7-.9-.8.2-1.3,1.9-2.5,1.6-.8-.2-.9-1.9-3.3-1.6-1.3.1-2.9,2.4-3.7,1.7-.4-.4,1.1-3.2-1.6-2.5,1.8,3.1-1.8,2.5-2.4.4-.4-1.3,1.5-4.9,1.6-6.5.4-3.8-1.2-7.4-.9-11.5.5-5.7-.2-9-.8-14.7-.4-3.2-.4-5.9,2.9-7,1.1-.3,1.6,1.4,3.2,1.6,2.4.3,5.3-.9,7.4-.9.9,0,1.5,1,2.3.8.8-.2,1.7-1.3,3.4-.8,1.9.6.7,2.3.6,2.9,0,.2.4.6.4.8,0,.5-.5,2.8-.6,2.9" fill="#f8f4eb"/>
  <path d="M79.3,18.5c-.7.7-2.5-.7-3-.8-.2,0-2.5.1-3.2.1-.9,0-2.7,2.1-2.1-1.4.2-.9.9-1.6.8-2.3,0-.3-1-2.6-1.2-3-.1-.2-1.4-1.5-1.7-1.6-1.7-.8-1.1,1.4-1.2,1.6-.1.2-1.9-1.4-2.4-.8,0,0,0,1.2-.1,1.9-1.5,5.7-3.1,13-2.4,18.9.4,2.9,2.8,5.7,3.3,8.5,1.4-.8,3.9,1.9,4.1,1.7,0-.1.5-1.9.9-2.8.4-.8,1.3-1.2,1.5-1.8.5-1.8-1-6,1.2-5.2,1.4.5,1.2,1,3.2,0,2.2,1,2.6.9,2.2,3.7-.3,2-2,3-2.4,4.2-.2.7,0,1.7-.1,1.9-.1.1-1,0-1.6.4-.9.6-1.4,3.3-2.9,3.7-2.1.6-8.2,0-10.2-1.1-1-.5-4.5-5.6-4.8-6.6-1.6-7.1-2.5-14.9-.8-21.9.2-.8,1.2-1.8,1.5-2.6.4-1.4,0-2.8,1.3-4.4,1-1.3,2.6-.6,2.9-.8.3-.3-1-.8-.5-1.6,1.1-1.7,4-1.5,5.7-1.7.4,0,.9-.8,1.7-.8,1.5,0,5.9,2.5,6.9,3.8.4.6,3.2,6,3.3,6.5.2.8.2,4.3,0,4.4M59.7,30.8c-1.7-1.7-2.1,2.8-1.6,3.3,1.7,1.7,2.1-2.8,1.6-3.3" fill="#c12026"/>
  <path d="M106.3,5.4c.3.3,1.3-.1,1.6,0,.2.1.2,3.9,0,4.1-.1.1-1.9,0-2.8.1-1.3.3-2.4,2.1-2.1-.9-1,0-1.4,1.4-2.1,1.6-.9.2-1.7-1.1-2-.8-.2.2.1,2.1,0,2.9-.4,4.2-.7,15.2,0,19.6.2,1.2,1.6,2.9,1.6,3.2,0,1.1-1.4,5.4-1.3,6.6,0,.4.8.8.6,1.6-.5,1.7-6.2,1.4-8.2,2.1.4-1.2-.6-1.6-.8-2.1-.1-.4,1.4-4.8,1.4-5.6,0-2.5-.9-5.8-.7-9,.2-3.3,1.4-6.9.9-10.6-.2-1.4-1.5-2.6-1.6-3.3-.2-.9,1.2-1.8.8-3.2-.5-1.9-2.1-.3-2.7-.5-.4,0-.9-.8-1.8-.8-1.4,0-2.1,1.7-2.5,1.7-2,0-1.3-6.7.9-7.4.8-.2,1.4.9,2.4.9s5.4-1,6.4-.8c2.3.4,6.9,1.2,9.1.6.7-.2,2.7-1.7,2.9-1.5.2.3-.2,1.3,0,1.6" fill="#f6947f"/>
  <path d="M7.4,5.4c.2.3-.6,2.4,1.2,1.6,1.2-.5,1.6-3.2,3.7-.4v29.8s-2.4.4-2.4.4c1.5,1.3,4.3,3,6.2,2.9.8,0,1.4-.7,1.6-.7,1.1,0,3.8,1.7,4.9,2.3.6.4.3-.6.4-1.1.2-.9,2.4-.6,2.5-.5.2.2.2,4.7,0,4.9-.4.4-8.7,0-10.2,0-2.2,0-4.6-.4-7.4,0-1.4.2-1.3.8-2,1.3-.8.5-1.6-.7-1.6-.8,0-.1.7-.9.8-2.4.6-6.8-.6-13.3-.9-19.6-.2-5.3,1.3-10.1.9-15.5.5-.9,1.3-3.6,2.4-2.1" fill="#30bdd2"/>
</svg>
