<svg viewBox="0 0 840 130" version="1.1" xmlns="http://www.w3.org/2000/svg" xmlns:xlink="http://www.w3.org/1999/xlink" xml:space="preserve" xmlns:serif="http://www.serif.com/"><path d="M339.7,72.5c-0.9,-1 -11.2,0.6 -15.3,0c3.4,7.2 -8.1,22.7 -5.1,25.5c0.7,0.7 19.7,0.7 20.4,0c0.9,-0.9 0.9,-24.6 0,-25.6m0,-40.9c-0.9,-0.9 -24.7,-0.9 -25.6,-0c-1.1,1.1 -1,29.5 0,30.7c2.4,2.6 20.8,-6.5 23.1,-10.1c2.5,-3.8 4.1,-18.9 2.4,-20.6m-40.9,-7.7c0.4,-2 10,-16.6 12.8,-17.9c10.6,-4.9 6.7,9 7.8,10.1c2.2,2.3 25.1,-6.9 35.2,13.4c1.1,2.2 0.1,6 1,9.2c1.1,3.5 5.9,5 4.4,10.3c-3.2,11.3 -13.3,0.5 -2.2,18.1c7.2,11.3 3.7,35.3 -7.7,43.7c-13.7,10.1 -20.5,2 -33.3,7.9c-2.5,-2.8 -17.9,-4.6 -17.9,-5.5c0,-23.1 -4.2,-70.3 0,-89.4" style="fill:#2ebcd1;"/><path d="M666.7,36.7c-21.8,-2.5 -12.9,2 -16,17.2c-2.2,11.1 -5.7,16.7 -4.5,31.3c2.7,32 25.1,10.3 25,5.1c-0,-1.2 -4.9,-4.9 -4.9,-10.3c-0,-5.4 5.1,-9 5.7,-15.2c1,-10.5 -7.7,-17.3 -5.4,-28.2m5.5,77.1c-1.8,1.8 0.8,8.2 -0.5,9.7c-5,6.1 -37.4,-7.5 -40.4,-18.2c-1.3,-4.5 0.5,-9.8 -1,-14.3c-2,-5.8 -8.5,-17.3 -9.3,-21.7c-0.3,-1.8 8.9,-31.5 10.5,-34.7c11.5,-23.3 45.6,-28.8 55.2,0c1.1,3.2 4.6,17.7 5,20.5c2,14.4 3,47.2 -9.5,55.8c-3.6,2.5 -9.1,1.8 -10,2.7" style="fill:#a6d8de;"/><path d="M247.7,16.3c3.3,3.2 -5.8,12.5 -4.8,17.2c4.7,22.9 -1.8,23.2 -0.5,36.6c0.6,6.2 5.7,9.6 5.7,15.2c0,5.6 -7.1,11.4 -5.5,12.8c0.8,0.7 19.7,0.7 20.4,0c2.1,-2.2 -1.5,-49.6 -0.2,-58.9c5.1,-6 -1.3,-20.3 7.9,-22.8c20.9,-5.8 11.1,18.4 12.6,33.4c1.4,13.8 3,9.1 0.8,26c-1.7,13.2 -0.2,24.4 -5.8,37.6c-17.5,3.2 -28.6,7.4 -46.1,-2.3c-9.8,-5.4 -10.9,-15.6 -10.2,-25.9c0.7,-10.2 0.1,-11.9 0,-20.1c-0,-11.5 -3.6,-45.4 7.9,-48.6c3,-0.8 17.2,-0.7 17.8,-0.1" style="fill:#a6d8de;"/><path d="M421.4,36.7c-8.9,3.6 -17.7,-6.4 -22.9,-5.1c-8.3,2.1 -10,23.4 -7.8,25.5c0.9,0.9 24.6,0.9 25.5,-0c0.7,-0.7 -0.8,-14.8 5.2,-20.4m-25.5,35.8c-4,4.9 8.4,32.4 -10.2,43.4c-4.8,2.8 -9.5,-2.6 -10.2,-5.2c-1.2,-4.5 -0.9,-20.1 -0.2,-25.7c2.3,-18.2 1.6,-13.4 0,-30.3c-1,-10.6 1,-22.5 0.2,-33.4c6.6,2.1 10.4,-4.3 13.1,-4.7c12.7,-2.2 44.2,4.7 47.9,17.7c6.7,23.6 -15,32.5 -14.9,35.5c0,2 17,29 15.2,35.7c-0.8,3.1 -8.4,9 -12.8,7.7c-9,-2.7 -11.3,-23.9 -15.2,-30.8c-1.4,-2.5 -11.7,-11.6 -13,-10" style="fill:#fb947e;"/><path d="M33.1,31.6c2.8,9.7 -8.5,13.2 -9.9,18.2c-3.1,10.6 3.8,17.3 3.8,20.2c0,2.8 -7,9.8 -3.9,20.2c1.1,3.6 12.6,14.5 17.7,13c9.2,-2.7 7.6,-24.3 12.4,-32.5c-10.8,-13.6 4.5,-39.1 -20.1,-39m-20.3,-10.1c0.6,-0.7 15,-5.1 17.6,-5.4c4.9,-0.6 16.1,-0.8 20.4,0.4c1.6,0.4 17.4,21.7 17.8,23.1c3.7,12.8 -3.1,18.8 -4.4,25.9c-0.4,2.3 1.4,10.2 0.2,20.3c-2,17.2 2.1,25.7 -18.9,32.4c-4.8,1.5 -7.5,-3.8 -10.3,-4.4c-9.2,-1.8 -23.7,-1.2 -27.2,-13.6c-2.3,-7.9 -1.7,-50.8 -0.5,-61.2c0.3,-2.4 4.8,-16.9 5.4,-17.6" style="fill:#e3051b;"/><path d="M748.3,16.4c0.9,0.9 -0.7,4.6 0.6,6.9c5.7,9.8 12.9,9.3 9.3,25.7c-0.9,4.3 -8.5,26.9 -10.3,30.6c-4.3,8.7 -16.8,13.7 -19.9,23.5c6.3,1.1 29,-1.6 30.7,0c0.5,0.5 0.5,14.8 0,15.3c-3.2,3.4 -11.4,-4.4 -13.4,-4.8c-4.9,-1.1 -8.5,4.5 -14.5,5c-5.4,0.4 -27.3,0.8 -28.3,-0.2c-1.3,-1.3 -0.4,-16 2.4,-20.6c3.5,-5.6 12.5,-10.9 17.4,-18.4c8.6,-13 9,-27.5 15.9,-40.3c-13.5,-20.9 -22.2,10.5 -33.2,7.7l-2.3,-22.7c1.8,-5.2 19.5,-12.2 22.7,-12.2c1,0 5.2,3.5 10.1,4.4c3.9,0.7 11.5,-1.4 12.8,-0" style="fill:#e3051b;"/><path d="M825.1,16.3c3.5,3.4 -7.1,14.6 -5.1,20.4c-14.9,4.6 -8.5,-8.6 -10.3,-10.2c-9.5,-8.6 -21.2,19.9 -15.3,25.5c1.1,1.1 29.5,4.1 30.6,5.2c0.9,1 -0.6,18.8 10.2,23.3c-5.5,20.6 -5.4,34.1 -28,42.5c-11,-3.4 -20,-10.8 -30.3,-14.9c-6.2,-2.5 -2,-10.1 -2.9,-15.3c7.6,2.3 10.2,-5.9 15.3,-2.7c6.9,4.4 23.3,26.7 25.6,0.1c0.3,-3.8 -4.3,-22.1 -5.2,-23c-1.4,-1.7 -32.4,18.3 -35.8,-7.6c-1.5,-11.5 3,-14.5 4.5,-21.2c1.2,-5.1 -0.2,-10.3 0.9,-14.4c1.3,-4.8 19.5,-12.2 22.7,-12.2c1.7,0 3.5,3.4 5.7,3.6c5,0.4 16.7,0.1 17.3,0.7" style="fill:#a6d8de;"/><path d="M584.9,92.9l28.1,15.3c5,2.6 -3.7,9.8 -5.2,10.2c-6.3,1.7 -27.5,0.7 -35.7,0.1c-5.3,-0.4 -18.1,-1.6 -17.9,-7.7c0.1,-1.7 14.8,-23.9 17.8,-28.1c3.8,-5.3 13.1,-10.7 15.5,-15.1c3.2,-5.8 4.2,-15.7 7.3,-22.7c-5.9,-3.7 -2.2,-17.4 -12.5,-13.2c-5.6,2.3 -24.3,19.5 -28.2,15.3c-0.7,-0.8 -0.7,-19.7 0,-20.4c0.7,-0.6 4.2,0.6 6.9,-0.6c13.8,-6.1 23.8,-14.3 41.4,-9.5c9.6,2.6 7.5,23.8 12.7,32.5c-9,14.3 -10.1,43.3 -30.4,44" style="fill:#2ebcd1;"/><path d="M140.4,46.9c-0.7,0.7 -19.7,0.8 -20.4,0c-1.5,-1.7 1.4,-13.7 -0,-15.3c-0.5,-0.6 -14.8,-0.5 -15.3,0c-1.4,1.5 1,17.5 0.2,23.2c-2.2,15 -11.3,21.7 0.1,40.4c11.2,18.3 19.1,-10.2 27.8,-17.6c10.7,6.5 4.3,38.3 -5.2,40.8c-7.9,2.1 -12.9,-3.8 -15.2,-3.8c-7.1,0.1 -9.4,9 -20.5,-6.2c-12.7,-17.4 -18.2,-55.1 -7,-73.6c13.2,-21.8 34.1,-27.1 50.5,-5.7c3.7,4.9 8.7,14.4 5.1,17.9" style="fill:#fb947e;"/><path d="M452.1,21.4c0.6,-0.6 4.4,0.8 7.2,-0.3c2.3,-1 4,-4 6,-4.3c10.7,-1.9 37.9,-4.7 37.9,12.3c0,5.8 -21.8,0.9 -28,2.6c-8.7,2.4 -5,9.5 -5.1,10.1c-0.9,4.9 -2.6,8.7 -2.7,12.7c-0.2,5.3 8.2,1.6 12.9,2.5c4.1,0.8 12.6,4.2 12.7,7.8c0.1,6 -14.5,7.3 -15.1,7.9c-1.1,1 -7.3,23.3 -5.3,25.3c2.1,2.1 30.6,5 30.7,12.8c0,13.1 -21.7,3.7 -23,3.7c-2.4,0 -7,6 -15.1,3.8c-3.1,-0.8 -13,-16.6 -13,-17.7c0,-11.3 -2.8,-76.4 0,-79.2" style="fill:#e3051b;"/><path d="M171.1,31.6c-1.6,-1.5 -18.8,1.6 -20.4,0c-0.6,-0.5 -0.5,-14.8 0,-15.3c1.6,-1.5 36.4,-0.6 43.5,-0c5.3,0.4 17.8,1.4 17.9,7.7c0.1,8.3 -19.6,7 -20.5,7.7c-2,1.7 3.8,4.8 3.8,7.5c0,2.2 -3.8,5.5 -4,10.2c-0.8,19.3 6.8,56.6 -10,66.5c-5.2,3.1 -10.2,-4.2 -10.2,-5.1c0,-11.3 2.8,-76.4 0,-79.2" style="fill:#2ebcd1;"/></svg>
